<svg width="240" height="217" viewBox="0 0 240 217" fill="none" xmlns="http://www.w3.org/2000/svg">
<path d="M130.567 217C190.49 217 239.067 168.423 239.067 108.5C239.067 48.5771 190.49 0 130.567 0C70.6438 0 22.0667 48.5771 22.0667 108.5C22.0667 168.423 70.6438 217 130.567 217Z" fill="#383838"/>
<path d="M52.0139 18.291H207.506C212.161 18.291 215.864 22.0665 215.864 26.6484V120.193C215.864 124.848 212.088 128.55 207.506 128.55H52.0139C47.3586 128.55 43.6565 124.775 43.6565 120.193V26.6484C43.6565 22.0298 47.4319 18.291 52.0139 18.291Z" fill="#86BBBE"/>
<path d="M52.637 23.093H206.92C208.789 23.093 210.365 24.5959 210.365 26.5386V107.914C210.365 109.783 208.862 111.286 206.92 111.286H52.637C50.7676 111.286 49.2647 109.783 49.2647 107.914V26.5386C49.1914 24.6692 50.7676 23.093 52.637 23.093Z" fill="#E8EAF7"/>
<path d="M159.048 151.277H100.436L107.73 128.587H151.79L159.048 151.277Z" fill="#C5C6E3"/>
<path d="M86.9465 145.522H172.61C173.856 145.522 174.883 146.548 174.883 147.795V149.041C174.883 150.287 173.856 151.314 172.61 151.314H86.9465C85.7003 151.314 84.6738 150.287 84.6738 149.041V147.795C84.7105 146.512 85.7003 145.522 86.9465 145.522Z" fill="#C5C6E3"/>
<path d="M128.99 124.555C131.521 124.555 133.572 122.504 133.572 119.973C133.572 117.443 131.521 115.391 128.99 115.391C126.46 115.391 124.408 117.443 124.408 119.973C124.408 122.504 126.46 124.555 128.99 124.555Z" fill="#E8EAF7"/>
<path d="M71.7712 33.7964H186.173V102.562C186.173 103.772 185.22 104.688 184.047 104.688H73.9341C72.7244 104.688 71.8079 103.735 71.8079 102.562C71.7713 102.599 71.7712 33.7964 71.7712 33.7964Z" fill="white"/>
<path d="M153.329 38.7446H179.941C180.674 38.7446 181.261 39.2945 181.261 40.0643V98.5296C181.261 99.2627 180.711 99.8492 179.941 99.8492H153.329C152.596 99.8492 152.01 99.2994 152.01 98.5296V40.0643C152.047 39.2945 152.596 38.7446 153.329 38.7446Z" fill="#E8E8F7"/>
<path d="M78.0026 38.7446H145.815C146.548 38.7446 147.135 39.2945 147.135 40.0643V98.5296C147.135 99.2627 146.585 99.8492 145.815 99.8492H78.0026C77.2694 99.8492 76.6831 99.2994 76.6831 98.5296V40.0643C76.6831 39.2945 77.3061 38.7446 78.0026 38.7446Z" fill="#EBDBCD"/>
<path d="M157.252 48.9717H166.489C167.002 48.9717 167.442 49.4115 167.442 49.9247C167.442 50.4379 167.002 50.8778 166.489 50.8778H157.252C156.739 50.8778 156.299 50.4379 156.299 49.9247C156.299 49.4115 156.665 48.9717 157.252 48.9717Z" fill="#C5C6E3"/>
<path d="M157.252 52.9304H176.129C176.643 52.9304 177.083 53.3703 177.083 53.8835C177.083 54.3966 176.643 54.8365 176.129 54.8365H157.252C156.739 54.8365 156.299 54.3966 156.299 53.8835C156.299 53.297 156.665 52.9304 157.252 52.9304Z" fill="#C5C6E3"/>
<path d="M157.252 70.2317H176.129C176.643 70.2317 177.083 70.6715 177.083 71.1847C177.083 71.6979 176.643 72.1378 176.129 72.1378H157.252C156.739 72.1378 156.299 71.6979 156.299 71.1847C156.299 70.5982 156.665 70.2317 157.252 70.2317Z" fill="#C5C6E3"/>
<path d="M157.252 66.2729H171.328C171.841 66.2729 172.281 66.7128 172.281 67.226C172.281 67.7392 171.841 68.179 171.328 68.179H157.252C156.739 68.179 156.299 67.7392 156.299 67.226C156.299 66.7128 156.665 66.2729 157.252 66.2729Z" fill="#C5C6E3"/>
<path d="M157.252 88.3762H176.129C176.643 88.3762 177.083 88.8161 177.083 89.3293C177.083 89.8424 176.643 90.2823 176.129 90.2823H157.252C156.739 90.2823 156.299 89.8424 156.299 89.3293C156.299 88.8161 156.665 88.3762 157.252 88.3762Z" fill="#C5C6E3"/>
<path d="M157.252 84.4175H166.489C167.002 84.4175 167.442 84.8573 167.442 85.3705C167.442 85.8837 167.002 86.3235 166.489 86.3235H157.252C156.739 86.3235 156.299 85.8837 156.299 85.3705C156.299 84.8573 156.665 84.4175 157.252 84.4175Z" fill="#C5C6E3"/>
<path d="M157.252 92.2617H176.129C176.643 92.2617 177.083 92.7016 177.083 93.2148C177.083 93.728 176.643 94.1678 176.129 94.1678H157.252C156.739 94.1678 156.299 93.728 156.299 93.2148C156.299 92.7016 156.665 92.2617 157.252 92.2617Z" fill="#C5C6E3"/>
<path d="M158.865 82.8412C160.14 82.8412 161.174 81.8073 161.174 80.5319C161.174 79.2565 160.14 78.2227 158.865 78.2227C157.589 78.2227 156.555 79.2565 156.555 80.5319C156.555 81.8073 157.589 82.8412 158.865 82.8412Z" fill="#00F0FF"/>
<path d="M158.865 47.3955C160.14 47.3955 161.174 46.3616 161.174 45.0862C161.174 43.8108 160.14 42.7769 158.865 42.7769C157.589 42.7769 156.555 43.8108 156.555 45.0862C156.555 46.3616 157.589 47.3955 158.865 47.3955Z" fill="#00F0FF"/>
<path d="M158.865 64.6235C160.14 64.6235 161.174 63.5896 161.174 62.3142C161.174 61.0388 160.14 60.0049 158.865 60.0049C157.589 60.0049 156.555 61.0388 156.555 62.3142C156.555 63.5896 157.589 64.6235 158.865 64.6235Z" fill="#025B61"/>
<path d="M92.5917 187.199L91.8953 196.546C91.7487 198.636 94.1678 200.322 96.1472 200.175C98.6031 200.029 99.9227 198.233 100.033 196.106L100.729 186.759C100.912 184.67 98.4566 182.984 96.4772 183.13C94.0579 183.24 92.7383 185.037 92.5917 187.199Z" fill="#FCB58A"/>
<path d="M122.466 188.152L123.896 197.426C124.225 199.515 126.975 200.578 128.917 199.992C131.227 199.295 132.106 197.243 131.813 195.117L130.384 185.843C130.054 183.754 127.304 182.691 125.362 183.277C122.979 183.973 122.173 186.063 122.466 188.152Z" fill="#FCB58A"/>
<path d="M91.9684 87.7896C88.5228 93.8744 86.3969 100.106 86.2136 107.107C86.0304 113.705 87.4598 120.23 93.2514 124.188C97.0635 126.828 100.949 120.816 97.1369 118.177C93.3614 115.538 93.1781 110.479 93.4346 106.191C93.7645 100.912 95.3774 96.257 98.0166 91.7117C100.253 87.6796 94.3144 83.7942 91.9684 87.7896Z" fill="#FCB58A"/>
<path d="M121.586 91.1987C124.775 95.3407 127.121 99.6661 128.184 104.871C129.064 109.27 129.394 113.412 125.728 116.674C122.356 119.827 127.048 125.215 130.42 122.063C132.693 120.046 134.379 117.407 135.295 114.548C136.248 111.286 135.992 108.097 135.442 104.761C134.232 97.7967 131.3 91.9684 126.975 86.4335C124.152 82.8412 118.727 87.5331 121.586 91.1987Z" fill="#FCB58A"/>
<path d="M130.127 85.1506C130.127 85.1506 126.498 59.4918 125.288 54.7999C123.419 47.5788 118.25 43.2534 110.993 43.2534C103.588 43.2534 98.4565 47.652 96.4405 54.8732C94.3511 62.2776 91.6019 84.6007 91.6019 84.6007C91.272 85.6271 91.7853 86.6901 92.8116 86.9833C95.1209 87.8631 100.033 89.4392 110.993 89.2926C120.78 89.146 125.875 87.863 128.367 87.6065C129.43 87.5331 130.237 86.5801 130.2 85.5171C130.2 85.4072 130.2 85.2972 130.127 85.1506Z" fill="#319795"/>
<path d="M106.96 68.5457H114.951V82.1448C114.951 83.2811 113.998 84.2342 112.862 84.2342H109.05C107.914 84.2342 106.96 83.2811 106.96 82.1448V68.5457V68.5457Z" fill="#FCB58A"/>
<path d="M110.993 71.4781C118.301 71.4781 124.225 65.5537 124.225 58.2455C124.225 50.9374 118.301 45.0129 110.993 45.0129C103.685 45.0129 97.7603 50.9374 97.7603 58.2455C97.7603 65.5537 103.685 71.4781 110.993 71.4781Z" fill="#FCB58A"/>
<path d="M97.5036 57.7323C97.5036 57.9156 97.5036 58.1722 97.5769 58.3554V58.4288C97.5769 58.6854 97.6502 58.8687 97.7235 59.1252C97.7968 59.3818 97.7968 59.6384 97.8701 59.8584C98.8232 56.1562 102.122 53.517 105.971 53.517C106.484 53.517 106.924 53.5903 107.401 53.6636C107.767 53.7369 108.097 53.8102 108.463 53.8102C110.919 53.8102 112.935 51.9774 113.229 49.5582C113.155 49.8147 113.155 50.0713 113.155 50.2913C113.155 53.1137 115.428 55.3864 118.251 55.3864C120.963 55.9362 123.199 57.9523 124.005 60.5915C124.189 60.0416 124.335 59.3818 124.372 58.7587V58.6854C124.445 58.4288 124.445 58.1722 124.445 57.9522V57.769C124.445 57.4391 124.445 57.2191 124.445 56.8892C124.445 56.5593 124.445 56.3761 124.445 56.1561C124.445 56.0828 124.445 56.0095 124.445 55.9728C124.445 55.7896 124.445 55.6063 124.372 55.4597C124.299 55.3131 124.372 55.3131 124.299 55.2031C124.225 55.0565 124.225 54.8732 124.225 54.6899L124.152 54.4333C124.079 54.2501 124.079 54.1034 124.005 53.9202C123.932 53.7369 123.932 53.7735 123.932 53.7369L123.786 53.2237C123.786 53.1504 123.712 53.0771 123.712 53.0404C123.639 52.8571 123.566 52.6739 123.529 52.5273C123.529 52.454 123.529 52.454 123.456 52.3806C123.382 52.1974 123.309 52.0141 123.272 51.8308V51.7575C123.199 51.5742 123.089 51.3176 123.016 51.1344C121.806 48.6784 119.937 46.6257 117.627 45.2328C116.894 44.793 116.125 44.4264 115.318 44.1698H115.245C114.988 44.0965 114.732 44.0232 114.548 43.9133H114.402C113.852 43.7666 113.339 43.6567 112.789 43.5833H112.606L111.982 43.51H111.726C111.469 43.51 111.176 43.51 110.919 43.51C103.442 43.51 97.4302 49.5215 97.4302 56.9992C97.4302 57.2558 97.4302 57.5124 97.4302 57.7323C97.5035 57.6957 97.5036 57.7323 97.5036 57.7323Z" fill="#319795"/>
<path d="M123.859 80.2021C121.11 78.6993 118.104 77.6729 114.952 77.233C114.438 79.4323 113.339 80.6053 110.809 80.6053C108.28 80.6053 107.437 79.3591 106.997 77.0864C106.484 77.0864 104.908 77.4163 104.542 77.5263C99.9596 78.406 98.1268 79.6156 95.8909 81.3018C92.3719 83.941 88.9263 89.4026 88.1932 90.6489C88.0466 90.7955 88.0466 91.0154 88.1932 91.1621C88.9996 92.4817 90.0627 93.618 91.3456 94.4977C92.9218 95.5241 94.5346 96.2572 96.2941 96.807C96.2941 96.807 97.3571 94.791 97.7236 94.0579C98.1635 93.0315 99.2997 89.6592 99.2997 89.6592C98.6766 91.0888 98.2733 92.6649 98.1634 94.2411C98.0901 96.3671 98.8599 98.7498 98.7866 100.179C98.6033 102.672 98.0902 105.128 97.3571 107.51C97.2838 107.84 97.4304 108.06 97.7236 108.207C101.756 109.16 105.898 109.71 110.04 109.783C114.512 109.783 118.947 109.453 123.346 108.757C123.676 108.683 123.859 108.427 123.786 108.134C123.786 108.134 123.786 108.134 123.786 108.06C123.236 105.678 122.759 103.295 122.576 100.912C122.209 97.6501 122.576 97.0269 122.576 94.6443C122.429 92.9582 122.209 91.1987 121.88 89.5126L122.576 96.0373C124.592 95.9639 126.608 95.5241 128.404 94.6443C129.65 93.9479 130.713 93.1415 131.74 92.1518C131.923 91.9685 131.996 91.7119 131.886 91.4553C131.007 89.6959 127.121 82.1449 123.859 80.2021Z" fill="#037981"/>
<path d="M110.993 71.4782C109.6 71.4782 108.28 71.2949 106.96 70.8551V73.3109C108.28 73.6775 109.673 73.7508 110.993 73.5675C112.385 73.4209 113.705 73.1277 114.951 72.5045V70.8184C113.705 71.2216 112.312 71.4782 110.993 71.4782Z" fill="#E3996D"/>
<path d="M99.6295 108.647C103.258 109.27 106.961 109.673 110.663 109.783C115.501 109.783 121.439 109.087 121.439 109.087C121.439 109.087 121.953 112.532 122.173 113.302C122.393 114.072 118.214 115.575 110.809 115.391C101.096 115.208 98.7499 113.815 98.8232 113.449C98.8232 113.082 99.6295 108.647 99.6295 108.647Z" fill="#FCB58A"/>
<path d="M124.629 115.465C130.64 127.451 133.499 134.965 135.112 150.984C136.505 164.473 134.746 182.544 134.489 192.844C134.489 193.174 134.416 193.467 134.232 193.724C133.719 194.457 130.603 195.153 129.724 195.227C125.398 195.557 121.33 194.897 120.926 193.357C118.654 184.084 116.894 174.736 115.721 165.243C114.695 157.398 113.449 148.601 112.826 142.223C112.826 141.966 112.642 141.783 112.386 141.783C112.129 141.783 111.946 141.966 111.946 142.223C111.799 143.286 111.689 149.334 111.506 151.13C111.066 156.225 110.26 161.174 109.38 166.196C108.06 174.187 104.981 185.403 102.672 192.991C102.489 193.614 102.049 194.127 101.426 194.31C99.813 194.567 98.2368 194.64 96.5873 194.567C94.6445 194.42 90.5757 193.834 90.3192 192.881C87.3501 180.565 87.2401 156.995 91.5654 132.399C92.5918 126.681 94.4612 121.219 97.1004 116.088C101.499 116.894 105.971 117.334 110.48 117.481C115.245 117.371 120.01 116.674 124.629 115.465Z" fill="#025B61"/>
<path d="M98.823 113.338C98.3099 113.485 97.8699 113.852 97.6133 114.292C97.2834 114.841 97.1001 115.428 97.0635 116.051C97.0635 116.051 102.085 117.554 111.616 117.81C120.853 118.067 124.592 115.501 124.592 115.501C124.408 114.878 124.042 114.365 123.455 113.998C122.722 113.558 122.136 113.265 122.136 113.265C122.136 113.265 119.24 115.831 110.479 115.208C101.719 114.585 98.823 113.338 98.823 113.338Z" fill="#FFADB2"/>
<path d="M95.4141 197.792C96.9902 197.866 98.4932 197.536 99.9228 196.986C100.473 198.122 100.949 199.369 101.242 200.615C101.426 201.861 102.122 206.003 101.096 206.846C100.143 207.653 100.289 207.47 98.9697 208.056C97.1003 208.862 96.3305 208.423 93.7646 209.742C92.8115 210.255 88.7428 213.994 84.6007 214.397C81.1551 214.727 80.2022 213.005 79.7623 212.088C79.3958 211.135 80.0922 209.376 82.5115 207.579C84.8941 205.747 87.0934 203.694 89.1094 201.348C90.1725 199.919 91.1254 198.269 91.7485 196.583C91.8585 196.546 92.5549 197.719 95.4141 197.792Z" fill="#0A5458"/>
<path d="M128.331 198.123C126.828 198.196 125.325 197.866 123.932 197.243C123.126 198.489 122.539 199.882 122.319 201.385C122.063 202.631 121.623 206.333 122.649 207.103C123.676 207.836 123.456 207.726 124.775 208.313C126.645 209.046 127.415 208.679 129.98 209.999C130.933 210.512 135.002 214.324 139.144 214.654C141.637 214.837 143.543 213.261 143.909 212.345C144.276 211.392 144.349 209.522 141.27 207.47C138.191 205.38 134.562 202.118 134.049 201.202C133.353 199.809 131.85 196.803 131.85 196.803C131.85 196.803 131.117 198.049 128.331 198.123Z" fill="#0A5458"/>
<path d="M121.989 89.5125C121.989 89.5125 122.502 92.4082 122.539 93.8378C122.539 94.7175 122.539 96.1104 122.539 96.1104C122.539 96.1104 123.162 96.1104 123.566 96.0371C123.932 95.9638 124.262 95.8905 124.262 95.8905C124.262 95.8905 123.895 94.5709 123.455 93.3246C123.052 92.115 121.989 89.5125 121.989 89.5125Z" fill="#00F0FF"/>
<path d="M99.4463 89.2925C99.4463 89.2925 98.7499 91.3085 98.42 92.6281C98.2734 93.3246 98.2367 94.021 98.2367 94.7175C98.1634 95.0841 97.7236 96.2937 97.5403 96.8068C97.467 96.9901 97.2837 97.0635 97.1737 97.0635C96.9171 96.9901 96.4772 96.9168 96.1473 96.8068C95.6341 96.6236 95.2675 96.477 95.4142 96.5503C95.5608 96.6236 96.5505 94.9741 97.2836 93.6545C97.8701 92.4449 99.4463 89.2925 99.4463 89.2925Z" fill="#00F0FF"/>
<path d="M122.429 115.978C126.901 124.848 129.577 134.415 131.08 144.202C132.656 154.539 132.766 165.023 132.29 175.433C131.96 181.444 131.557 187.492 130.897 193.43C130.823 194.127 131.923 194.127 131.96 193.43C132.986 182.654 133.792 171.84 133.536 161.064C133.279 150.947 132.106 140.867 129.32 131.08C127.818 125.691 125.802 120.413 123.309 115.464C122.979 114.841 122.026 115.391 122.429 115.978Z" fill="white"/>
<path d="M98.1267 116.234C94.2412 125.215 92.1152 134.819 90.9055 144.459C89.7692 154.429 89.2928 164.473 89.5127 174.517C89.586 180.455 89.8792 186.356 90.5757 192.258C90.649 192.954 91.7119 192.954 91.6386 192.258C90.429 181.921 90.3924 171.511 90.7589 161.137C91.0888 151.46 91.9686 141.747 94.0946 132.29C95.3042 126.938 96.9903 121.733 99.1163 116.748C99.3362 116.088 98.4566 115.611 98.1267 116.234Z" fill="white"/>
<path d="M110.699 109.746C106.997 109.6 103.295 109.233 99.6662 108.61C99.6662 108.61 99.5929 109.123 99.4829 109.819C103.112 110.846 106.961 111.249 110.773 111.066C114.402 110.919 117.994 110.333 121.439 109.123L121.586 109.05C121.476 109.123 115.501 109.746 110.699 109.746Z" fill="#F0A173"/>
<path d="M73.6039 28.8845H184.413C185.44 28.8845 186.246 29.6909 186.246 30.7173V33.7963H71.8078V30.7173C71.7712 29.6909 72.5776 28.8845 73.6039 28.8845Z" fill="#86BBBE"/>
<path d="M57.3291 98.8229L56.9626 98.7496C56.0095 98.5663 55.1298 99.0795 54.7632 99.9592L52.1242 107.29C52.0509 107.437 52.0508 107.474 52.0508 107.62C52.9305 108.353 54.0669 108.867 55.2032 109.013C56.2295 109.196 57.2925 109.16 58.2822 108.83C58.2822 108.757 58.3556 108.647 58.3556 108.573L58.9786 100.802C58.9053 99.8493 58.2822 99.0428 57.3291 98.8229Z" fill="#D7D7E6"/>
<path d="M57.4756 87.6798C57.6589 87.3499 58.0256 87.24 58.3555 87.4233C58.5021 87.4966 58.5387 87.5699 58.612 87.6798C58.9786 88.4862 59.5651 89.5126 59.9316 90.1724C60.6647 91.8586 60.9579 93.7646 60.628 95.5607C60.1882 96.9536 59.5651 98.2732 58.6854 99.3729C58.6121 99.5195 58.5021 99.5562 58.3555 99.6295C57.7324 99.8128 57.1092 99.8128 56.4861 99.7028C55.2764 99.3729 55.093 98.6398 55.093 98.6398C54.7265 97.2102 54.5432 95.7441 54.5432 94.3145C54.6898 92.8849 55.1665 91.492 55.9362 90.2457C56.5227 89.366 57.0358 88.5596 57.4756 87.6798Z" fill="#319795"/>
<path d="M47.5422 136.871L52.0141 108.133C52.0141 107.987 52.0874 107.804 52.1607 107.694C53.8468 109.087 56.1928 109.526 58.2455 108.903C58.2455 109.086 58.1723 109.27 58.1723 109.416L51.3544 137.714C51.1711 138.741 50.1447 139.401 49.155 139.144C48.1287 138.887 47.3589 137.861 47.5422 136.871Z" fill="#319795"/>
<path d="M45.0434 85.1791L36.0129 85.8374L39.9921 140.422L49.0225 139.763L45.0434 85.1791Z" fill="#DADAED"/>
<path d="M39.5786 92.9504L36.5076 93.1743L36.5529 93.7958L39.6239 93.5719L39.5786 92.9504Z" fill="#989BD7"/>
<path d="M39.7862 99.3275L36.7146 99.5425L36.7581 100.164L39.8297 99.9492L39.7862 99.3275Z" fill="#989BD7"/>
<path d="M40.19 105.488L37.1184 105.703L37.1619 106.325L40.2335 106.11L40.19 105.488Z" fill="#989BD7"/>
<path d="M40.8984 111.279L37.8274 111.503L37.8727 112.125L40.9437 111.901L40.8984 111.279Z" fill="#989BD7"/>
<path d="M41.3383 117.364L38.2673 117.588L38.3126 118.209L41.3837 117.986L41.3383 117.364Z" fill="#989BD7"/>
<path d="M41.7761 123.486L38.7051 123.71L38.7504 124.332L41.8214 124.108L41.7761 123.486Z" fill="#989BD7"/>
<path d="M42.289 129.57L39.2178 129.794L39.2631 130.416L42.3343 130.192L42.289 129.57Z" fill="#989BD7"/>
<path d="M35.7127 103.844L29.9719 104.848L37.5236 147.995L43.2643 146.99L35.7127 103.844Z" fill="#048D96"/>
<path d="M35.7758 103.918L29.9841 104.908L30.864 96.6603L32.1103 96.4771L35.7758 103.918Z" fill="#EBDBCD"/>
<path d="M31.2305 100.472L32.0735 99.9227L32.7332 99.9593L33.5764 99.5195L32.1102 96.4771L30.8639 96.6603L30.5706 99.9593L31.2305 100.472Z" fill="#048D96"/>
<path d="M31.7435 119.313H56.8524C57.4756 119.313 57.9154 119.826 57.9154 120.376C57.9154 120.45 57.9154 120.45 57.9154 120.523L54.5797 147.318C54.4331 148.564 53.3702 149.517 52.1239 149.517H36.3254C35.0791 149.517 34.016 148.564 33.8694 147.318L30.6071 120.523C30.5338 119.973 30.9737 119.387 31.5602 119.313C31.6335 119.35 31.6702 119.35 31.7435 119.313Z" fill="#025B61"/>
<path d="M3.00586 150.47H59.9316C63.3039 150.47 66.0165 153.183 66.0165 156.555V156.922C66.0165 160.294 63.3039 163.007 59.9316 163.007H3.00586V150.47Z" fill="#F8E7D8"/>
<path d="M100.253 149.554H0.439936C0.183349 149.554 0 149.737 0 149.994C0 150.251 0.183349 150.434 0.439936 150.434H59.6749C63.1205 150.434 65.943 153.256 65.943 156.702C65.943 160.148 63.1205 162.97 59.6749 162.97H0.439936C0.183349 162.97 0 163.153 0 163.41C0 163.667 0.183349 163.85 0.439936 163.85H100.253C103.698 163.85 106.521 161.027 106.521 157.582V155.749C106.557 152.377 103.735 149.554 100.253 149.554Z" fill="#319795"/>
<path d="M48.5685 160.257H3.00586V159.708H48.5685C48.7517 159.708 48.8983 159.854 48.8983 160.037C48.8617 160.074 48.7517 160.257 48.5685 160.257Z" fill="#DEBCA7"/>
<path d="M53.5169 154.063H3.00586V153.513H53.5169C53.7002 153.513 53.8468 153.66 53.8468 153.843C53.8468 153.916 53.7002 154.063 53.5169 154.063Z" fill="#DEBCA7"/>
<path d="M59.0886 156.995H3.00586V156.445H59.0886C59.2719 156.445 59.4185 156.592 59.4185 156.775C59.4185 156.885 59.3086 156.995 59.0886 156.995Z" fill="#DEBCA7"/>
<path d="M222.792 165.609C214.434 164.363 206.04 162.97 197.829 161.211C182.288 157.948 178.182 182.251 193.614 185.477C197.243 186.21 200.945 186.979 204.611 187.676C211.649 181.188 217.733 173.747 222.792 165.609Z" fill="#FCB58A"/>
<path d="M175.506 159.891C183.717 160.221 190.681 164.473 197.353 169.128C202.118 172.464 206.81 164.986 202.045 161.65C194.127 156.115 185.623 151.424 175.872 151.057C170.118 150.727 169.714 159.634 175.506 159.891Z" fill="#FCB58A"/>
<path d="M189.912 186.869L179.428 186.796C172.793 186.723 167.258 181.041 167.112 174.113L167.039 171.731C166.892 164.839 172.17 159.194 178.842 159.231L189.325 159.304C195.923 159.378 201.495 165.059 201.641 171.987L201.714 174.37C201.861 181.298 196.583 186.943 189.912 186.869Z" fill="#FCB58A"/>
<path d="M150.764 199.845H139.107C131.116 199.845 124.629 193.614 124.152 185.733L122.283 151.35C122.209 150.104 123.162 149.041 124.372 148.968C124.445 148.968 124.519 148.968 124.519 148.968H165.243C166.489 148.968 167.515 149.994 167.515 151.24C167.515 151.314 167.515 151.314 167.515 151.387L165.646 185.77C165.279 193.651 158.681 199.845 150.764 199.845Z" fill="#048D96"/>
<path d="M167.149 156.775L166.819 162.054C172.537 163.263 176.166 168.835 174.993 174.553C174.04 179.135 170.228 182.544 165.573 182.91L165.243 188.189C173.967 187.859 180.748 180.528 180.418 171.877C180.198 164.216 174.627 157.948 167.149 156.775Z" fill="#025B61"/>
<path d="M147.941 140.94C147.941 140.94 137.971 131.703 138.264 124.922C138.777 114.585 148.051 110.626 144.532 100.839C142.846 96.1839 135.882 81.1919 135.882 81.1919C135.882 81.1919 147.428 92.6284 151.497 99.6296C155.199 106.044 154.759 116.124 150.764 120.963C142.003 131.593 147.941 140.94 147.941 140.94Z" fill="#DCDCED"/>
<path d="M180.271 159.414C184.926 159.671 188.445 163.666 188.189 168.285L187.566 178.952C187.309 183.607 183.314 187.126 178.695 186.869C173.123 186.539 168.908 181.774 169.238 176.203L169.678 168.982C169.971 163.337 174.736 159.085 180.271 159.414Z" fill="#F0A173"/>
<path d="M178.585 158.938C183.241 159.194 186.759 163.19 186.503 167.772L185.88 178.439C185.623 183.094 181.628 186.613 177.009 186.356C171.437 186.026 167.222 181.261 167.552 175.689L167.992 168.468C168.212 162.897 172.977 158.645 178.585 158.938Z" fill="#FCB58A"/>
</svg>
