<svg width="607" height="701" viewBox="0 0 607 701" fill="none" xmlns="http://www.w3.org/2000/svg">
<path opacity="0.07" d="M258.147 1.64224L607 391.526L258.069 379.047C255.493 378.969 252.683 374.758 253.307 371.95L288.434 216.121L464.227 304.097L286.327 187.966L253.385 3.35808C252.761 -0.229574 255.571 -1.16548 258.147 1.64224Z" fill="url(#paint0_linear)"/>
<path opacity="0.4" d="M231.372 21.0627L580.225 410.947L231.294 398.468C228.718 398.39 225.907 394.178 226.532 391.37L261.581 235.62L437.374 323.595L259.63 207.386L226.61 22.7785C225.986 19.1908 228.796 18.2549 231.372 21.0627Z" fill="url(#paint1_linear)"/>
<path opacity="0.3" d="M257.054 432.94L24.7454 298.949L24.8234 419.915L236.602 542.051L257.132 572.39L257.054 432.94Z" fill="url(#paint2_linear)"/>
<path d="M0 346.135V313.3L87.6622 363.839V396.674L0 346.135Z" fill="#F2994A"/>
<path opacity="0.15" d="M197.337 427.949L146.442 398.624V409.23L197.337 438.556V427.949Z" fill="#00F0FF"/>
<path opacity="0.15" d="M197.337 449.163L99.2152 392.618V403.225L197.337 459.77V449.163Z" fill="#00F0FF"/>
<path opacity="0.15" d="M197.416 470.455L78.5291 401.899V412.506L197.416 481.062V470.455Z" fill="#00F0FF"/>
<path d="M209.905 446.199C209.905 456.182 215.838 467.647 223.097 471.858C230.357 476.07 236.29 471.39 236.29 461.407C236.29 451.424 230.357 439.959 223.097 435.748C215.76 431.536 209.905 436.216 209.905 446.199Z" fill="#F2994A"/>
<path opacity="0.3" d="M277.115 333.032L509.424 467.023L509.502 587.989L297.645 465.775L277.194 472.483L277.115 333.032Z" fill="url(#paint3_linear)"/>
<path d="M441.823 488.315V455.48L529.486 506.019V538.854L441.823 488.315Z" fill="#F2C94C"/>
<path opacity="0.15" d="M336.832 396.908L387.727 426.233V436.84L336.832 407.515V396.908Z" fill="#00F0FF"/>
<path opacity="0.15" d="M336.832 418.2L428.709 471.157V481.763L336.832 428.807V418.2Z" fill="#00F0FF"/>
<path opacity="0.15" d="M336.91 439.414L455.796 507.969V518.576L336.91 450.021V439.414Z" fill="#00F0FF"/>
<path d="M324.342 400.73C324.342 410.713 318.41 415.392 311.15 411.181C303.89 406.969 297.958 395.504 297.958 385.521C297.958 375.538 303.89 370.859 311.15 375.07C318.41 379.282 324.342 390.825 324.342 400.73Z" fill="#F2C94C"/>
<path opacity="0.2" d="M541.195 628.779L402.481 548.759V620.98L541.195 701V628.779Z" fill="url(#paint4_linear)"/>
<path opacity="0.15" d="M437.999 586.663L479.683 610.763V619.42L437.999 595.32V586.663Z" fill="#00F0FF"/>
<path opacity="0.15" d="M437.999 604.056L526.832 655.297V664.11L437.999 612.869V604.056Z" fill="#00F0FF"/>
<path d="M430.661 589.237C430.661 595.164 427.148 597.972 422.777 595.476C418.405 592.98 414.893 586.117 414.893 580.19C414.893 574.262 418.405 571.454 422.777 573.95C427.148 576.446 430.661 583.309 430.661 589.237Z" fill="#F2C94C"/>
<path opacity="0.2" d="M157.136 518.03L18.4224 438.01V510.231L157.136 590.251V518.03Z" fill="url(#paint5_linear)"/>
<path opacity="0.15" d="M53.94 475.914L95.6244 500.014V508.671L53.94 484.571V475.914Z" fill="#00F0FF"/>
<path opacity="0.15" d="M53.94 493.307L142.773 544.548V553.361L53.94 502.12V493.307Z" fill="#00F0FF"/>
<path d="M46.6022 478.488C46.6022 484.415 43.0895 487.223 38.7181 484.727C34.3467 482.231 30.834 475.368 30.834 469.441C30.834 463.513 34.3467 460.705 38.7181 463.201C43.0895 465.697 46.6022 472.56 46.6022 478.488Z" fill="#F2994A"/>
<path opacity="0.2" d="M177.042 288.342L143.632 269.078V257.847L177.042 277.111C179.774 278.671 183.755 281.869 187.111 286.782C190.78 292.008 193.356 298.637 193.356 305.812C193.356 313.768 191.327 318.291 187.502 319.539C183.911 320.709 179.618 318.681 177.042 317.199L163.303 309.244L163.225 309.166C162.054 308.464 160.181 307.762 158.697 308.23C157.448 308.62 156.121 309.79 156.121 314.236C156.121 318.681 157.526 321.333 158.619 322.971C160.024 324.999 161.898 326.402 163.069 327.026L163.225 327.104L205.222 351.36V362.591L163.459 338.491C160.571 337.009 156.434 333.812 152.843 328.82C148.94 323.283 146.286 316.341 146.286 308.62C146.286 300.899 148.94 296.999 152.765 295.907C156.356 294.894 160.493 296.375 163.381 298.091L176.964 305.89C178.915 307.06 180.398 307.528 181.413 307.216C182.194 306.982 183.599 305.89 183.599 300.197C183.599 296.453 182.428 294.036 181.257 292.476C179.93 290.448 178.135 288.966 177.042 288.342Z" fill="#00F0FF"/>
<path d="M149.72 266.66C149.72 276.721 143.788 281.479 136.528 277.345C129.268 273.134 123.336 261.591 123.336 251.452C123.336 241.391 129.268 236.633 136.528 240.767C143.788 244.978 149.72 256.599 149.72 266.66Z" fill="#F2994A"/>
<path d="M222.317 366.491C222.317 376.552 216.384 381.309 209.125 377.176C201.865 372.964 195.932 361.421 195.932 351.282C195.932 341.221 201.865 336.464 209.125 340.597C216.384 344.809 222.317 356.43 222.317 366.491Z" fill="#F2C94C"/>
<path opacity="0.2" d="M315.053 527.701V593.448C315.053 594.15 315.756 594.93 316.224 594.696L331.602 585.259L347.292 613.024C348.151 614.506 349.634 614.662 349.634 613.258V547.745L315.053 527.701Z" fill="url(#paint6_linear)"/>
<defs>
<linearGradient id="paint0_linear" x1="476.356" y1="135.45" x2="317.566" y2="345.33" gradientUnits="userSpaceOnUse">
<stop stop-color="#00F0FF"/>
<stop offset="1" stop-color="white" stop-opacity="0"/>
</linearGradient>
<linearGradient id="paint1_linear" x1="449.616" y1="154.878" x2="290.827" y2="364.758" gradientUnits="userSpaceOnUse">
<stop stop-color="#00F0FF"/>
<stop offset="1" stop-color="white" stop-opacity="0"/>
</linearGradient>
<linearGradient id="paint2_linear" x1="206.412" y1="384.464" x2="86.5509" y2="478.394" gradientUnits="userSpaceOnUse">
<stop stop-color="#00F0FF"/>
<stop offset="1" stop-color="white" stop-opacity="0"/>
</linearGradient>
<linearGradient id="paint3_linear" x1="376.908" y1="336.929" x2="406.887" y2="580.297" gradientUnits="userSpaceOnUse">
<stop stop-color="#00F0FF"/>
<stop offset="1" stop-color="white" stop-opacity="0"/>
</linearGradient>
<linearGradient id="paint4_linear" x1="487.475" y1="597.804" x2="456.226" y2="651.99" gradientUnits="userSpaceOnUse">
<stop stop-color="#00F0FF"/>
<stop offset="1" stop-color="white" stop-opacity="0"/>
</linearGradient>
<linearGradient id="paint5_linear" x1="103.416" y1="487.054" x2="72.1676" y2="541.239" gradientUnits="userSpaceOnUse">
<stop stop-color="#00F0FF"/>
<stop offset="1" stop-color="white" stop-opacity="0"/>
</linearGradient>
<linearGradient id="paint6_linear" x1="347.298" y1="561.309" x2="307.958" y2="586.244" gradientUnits="userSpaceOnUse">
<stop stop-color="#00F0FF"/>
<stop offset="1" stop-color="white" stop-opacity="0"/>
</linearGradient>
</defs>
</svg>
