<svg width="423" height="521" viewBox="0 0 423 521" fill="none" xmlns="http://www.w3.org/2000/svg">
<path opacity="0.07" d="M422.942 262.045C415.581 257.76 410.249 257.645 406.945 261.698C403.641 265.693 402.018 272.468 402.018 282.023V333.501C402.018 343.287 401.091 351.394 399.294 357.822C397.497 364.481 394.425 369.229 390.194 372.008C386.079 374.846 380.515 375.599 373.443 374.267C366.546 372.993 357.91 369.403 347.593 363.438L342.666 360.601V320.067L348.81 323.599C356.171 327.884 361.098 328.405 363.59 325.279C366.198 322.267 367.531 315.956 367.531 306.401V261.061C367.531 249.248 368.691 239.925 371.009 233.035C373.327 226.144 377.906 221.801 384.804 219.832C377.906 209.93 373.327 200.26 371.009 190.763C368.691 181.267 367.589 170.612 367.589 158.799V113.459C367.589 103.905 366.256 96.1453 363.648 90.0652C361.214 84.1009 356.287 79.0051 348.868 74.7201L342.724 71.1879V30.6538L347.651 33.4912C357.968 39.4555 366.604 45.7672 373.501 52.4843C380.573 59.2593 386.137 66.4975 390.252 74.0832C394.541 81.7846 397.555 90.0072 399.352 98.751C401.149 107.263 402.076 116.47 402.076 126.198V177.677C402.076 187.231 403.699 195.917 407.003 203.676C410.307 211.494 415.639 217.516 423 221.743L422.942 262.045Z" fill="url(#paint0_linear)"/>
<path opacity="0.07" d="M236.018 112.938C243.379 117.223 248.711 117.339 252.015 113.285C255.319 109.29 256.941 102.515 256.941 92.9603V41.4821C256.941 31.696 257.869 23.5892 259.666 17.1616C261.462 10.5025 264.418 5.69628 268.534 2.85889C272.823 0.0794136 278.387 -0.673362 285.284 0.600566C292.356 1.9324 301.05 5.58047 311.367 11.5448L316.294 14.3821V54.9162L310.15 51.384C302.789 47.0989 297.746 46.5199 295.138 49.531C292.703 52.6579 291.428 58.9696 291.428 68.5241V113.864C291.428 125.677 290.269 135 287.951 141.891C285.632 148.724 281.053 153.124 274.156 155.093C281.053 164.995 285.632 174.665 287.951 184.162C290.269 193.659 291.37 204.313 291.37 216.126V261.466C291.37 271.021 292.588 278.78 295.08 284.744C297.688 290.824 302.731 295.978 310.092 300.205L316.236 303.737V344.272L311.309 341.434C300.992 335.47 292.298 329.1 285.226 322.325C278.329 315.608 272.765 308.428 268.476 300.726C264.361 293.141 261.404 284.976 259.608 276.174C257.811 267.662 256.884 258.455 256.884 248.727V197.249C256.884 187.694 255.261 179.008 251.957 171.249C248.653 163.432 243.321 157.409 235.96 153.182L236.018 112.938Z" fill="url(#paint1_linear)"/>
<path opacity="0.4" d="M399.758 279.417C392.397 275.132 387.064 275.016 383.76 279.07C380.457 283.065 378.834 289.84 378.834 299.394V350.873C378.834 360.659 377.906 368.766 376.11 375.193C374.313 381.852 371.241 386.601 367.01 389.38C362.894 392.217 357.33 392.97 350.259 391.638C343.361 390.364 334.725 386.774 324.408 380.81L319.482 377.973V337.439L325.625 340.971C332.986 345.256 337.913 345.777 340.405 342.65C343.014 339.639 344.347 333.327 344.347 323.773V278.433C344.347 266.62 345.506 257.297 347.825 250.406C350.143 243.515 354.722 239.172 361.619 237.204C354.722 227.302 350.143 217.631 347.825 208.135C345.506 198.638 344.405 187.984 344.405 176.171V130.831C344.405 121.276 343.072 113.517 340.463 107.437C338.029 101.472 333.102 96.3767 325.683 92.0917L319.539 88.5594V48.0254L324.466 50.8628C334.783 56.8271 343.419 63.1388 350.317 69.8559C357.388 76.6309 362.952 83.8691 367.068 91.4547C371.357 99.1562 374.371 107.379 376.167 116.123C377.964 124.635 378.892 133.842 378.892 143.57V195.048C378.892 204.603 380.515 213.289 383.818 221.048C387.122 228.865 392.455 234.887 399.816 239.115L399.758 279.417Z" fill="url(#paint2_linear)"/>
<path opacity="0.4" d="M212.833 130.309C220.194 134.594 225.527 134.71 228.83 130.657C232.134 126.661 233.757 119.886 233.757 110.332V58.8536C233.757 49.0676 234.684 40.9607 236.481 34.5332C238.278 27.874 241.234 23.0679 245.349 20.2305C249.638 17.451 255.203 16.6982 262.1 17.9721C269.171 19.304 277.865 22.952 288.182 28.9163L293.109 31.7537V72.2878L286.965 68.7555C279.604 64.4705 274.562 63.8914 271.953 66.9025C269.519 70.0295 268.244 76.3412 268.244 85.8957V131.236C268.244 143.049 267.085 152.372 264.766 159.262C262.448 166.095 257.869 170.496 250.971 172.465C257.869 182.367 262.448 192.037 264.766 201.534C267.085 211.03 268.186 221.685 268.186 233.498V278.838C268.186 288.392 269.403 296.152 271.895 302.116C274.504 308.196 279.546 313.35 286.907 317.577L293.051 321.109V361.643L288.125 358.806C277.807 352.841 269.113 346.472 262.042 339.697C255.145 332.98 249.58 325.799 245.291 318.098C241.176 310.512 238.22 302.348 236.423 293.546C234.626 285.034 233.699 275.827 233.699 266.098V214.62C233.699 205.066 232.076 196.38 228.772 188.621C225.469 180.803 220.136 174.781 212.775 170.554L212.833 130.309Z" fill="url(#paint3_linear)"/>
<path opacity="0.15" d="M84.1595 7.08594L183.215 64.239L183.157 301.247L84.1016 244.094L84.1595 7.08594Z" fill="url(#paint4_linear)"/>
<path d="M65.554 43.5088L144.323 88.9649V110.795L65.554 65.3393V43.5088Z" fill="#F2C94C"/>
<path opacity="0.15" d="M96.3894 138.243L172.087 181.904V215.836L96.3894 172.175V138.243Z" fill="#00F0FF"/>
<path opacity="0.15" d="M96.3314 97.1875L172.144 140.906V148.782L96.3314 105.121V97.1875Z" fill="#00F0FF"/>
<path opacity="0.15" d="M96.3314 112.59L161.885 150.403V158.278L96.3314 120.466V112.59Z" fill="#00F0FF"/>
<path opacity="0.2" d="M84.1596 7.08594L183.215 64.239V96.0292L84.1596 38.8762V7.08594Z" fill="url(#paint5_linear)"/>
<path opacity="0.2" d="M108.909 37.4288C108.909 42.235 106.069 44.4933 102.591 42.5245C99.1135 40.4978 96.3314 34.9967 96.3314 30.1906C96.3314 25.3844 99.1715 23.126 102.649 25.0948C106.069 27.1215 108.909 32.6226 108.909 37.4288Z" fill="#00F0FF"/>
<path opacity="0.15" d="M205.878 226.838L304.933 283.991L304.875 521L205.82 463.847L205.878 226.838Z" fill="url(#paint6_linear)"/>
<path d="M243.611 295.805L322.38 341.203V362.975L243.553 317.577L243.611 295.805Z" fill="#F2994A"/>
<path opacity="0.15" d="M218.108 318.33L293.863 362.048V395.923L218.108 352.204V318.33Z" fill="#00F0FF"/>
<path opacity="0.15" d="M217.992 366.739L293.805 410.458V418.333L217.992 374.672V366.739Z" fill="#00F0FF"/>
<path opacity="0.15" d="M217.992 380.984L283.546 418.796V426.672L217.992 388.859V380.984Z" fill="#00F0FF"/>
<path opacity="0.2" d="M205.878 226.838L304.933 283.991V315.782L205.878 258.629V226.838Z" fill="url(#paint7_linear)"/>
<path opacity="0.2" d="M230.627 257.239C230.627 262.045 227.787 264.304 224.309 262.335C220.832 260.308 218.05 254.807 218.05 250.001C218.05 245.195 220.89 242.937 224.367 244.905C227.787 246.874 230.627 252.433 230.627 257.239Z" fill="#00F0FF"/>
<path opacity="0.3" d="M188.721 259.671L16.2871 160.247L16.3451 250.058L173.593 340.739L188.837 363.264L188.721 259.671Z" fill="url(#paint8_linear)"/>
<path opacity="0.15" d="M144.381 255.965L106.591 234.193V242.068L144.381 263.841V255.965Z" fill="#00F0FF"/>
<path opacity="0.15" d="M144.381 271.773L50.832 217.805V225.68L144.439 279.649L144.381 271.773Z" fill="#00F0FF"/>
<path opacity="0.15" d="M144.439 287.582L31.473 222.438V230.313L144.439 295.457V287.582Z" fill="#00F0FF"/>
<path d="M153.713 269.573C153.713 276.985 158.118 285.497 163.508 288.624C168.899 291.751 173.304 288.277 173.304 280.865C173.304 273.453 168.899 264.941 163.508 261.814C158.06 258.687 153.713 262.161 153.713 269.573Z" fill="#F2994A"/>
<path opacity="0.15" d="M33.3277 97.1872L10.491 83.9847V76.2832L33.3277 89.4857C35.1824 90.5859 37.9066 92.7285 40.225 96.087C42.7174 99.6771 44.5142 104.194 44.5142 109.116C44.5142 114.559 43.1231 117.628 40.5148 118.554C38.0225 119.365 35.1245 117.975 33.3277 116.933L23.938 111.49L23.88 111.432C23.0686 110.969 21.7934 110.506 20.8081 110.795C19.9966 111.027 19.0113 111.895 19.0113 114.906C19.0113 117.917 19.9387 119.77 20.7501 120.871C21.7355 122.26 23.0106 123.245 23.8221 123.65L23.938 123.708L52.6867 140.269V147.971L24.1119 131.467C22.1412 130.425 19.3011 128.283 16.8667 124.866C14.2005 121.102 12.3458 116.354 12.3458 111.027C12.3458 105.757 14.2005 103.036 16.8088 102.283C19.2431 101.588 22.0832 102.63 24.0539 103.788L33.3856 109.174C34.7187 109.926 35.762 110.274 36.3996 110.042C36.9213 109.869 37.8486 109.116 37.8486 105.236C37.8486 102.688 37.0372 101.067 36.2257 99.9088C35.2984 98.6348 34.0812 97.5925 33.3277 97.1872Z" fill="#00F0FF"/>
<path d="M17.2724 84.7954C17.2724 91.3967 13.389 94.4657 8.6362 91.7441C3.88339 89.0225 0 81.4368 0 74.8356C0 68.2343 3.88339 65.1653 8.6362 67.8869C13.389 70.6664 17.2724 78.252 17.2724 84.7954Z" fill="#F2C94C"/>
<path d="M63.0616 148.492C63.0616 155.093 59.1782 158.162 54.4254 155.441C49.6726 152.719 45.7892 145.134 45.7892 138.532C45.7892 131.931 49.6726 128.862 54.4254 131.584C59.1782 134.363 63.0616 141.949 63.0616 148.492Z" fill="#F2C94C"/>
<path opacity="0.2" d="M124.674 349.831C128.152 351.857 130.934 356.663 130.934 360.717V378.378L142.642 385.095C146.12 387.122 148.902 391.928 148.902 395.981C148.902 399.977 146.062 401.598 142.642 399.63L130.934 392.912V410.574C130.934 414.569 128.094 416.191 124.674 414.222C121.197 412.195 118.415 407.389 118.415 403.335V385.674L106.707 378.957C103.229 376.93 100.447 372.124 100.447 368.071C100.447 364.075 103.287 362.454 106.707 364.423L118.415 371.14V353.479C118.415 349.425 121.197 347.804 124.674 349.831Z" fill="url(#paint9_linear)"/>
<defs>
<linearGradient id="paint0_linear" x1="459.408" y1="42.3615" x2="316.662" y2="289.996" gradientUnits="userSpaceOnUse">
<stop stop-color="#00F0FF"/>
<stop offset="1" stop-color="#00F0FF" stop-opacity="0"/>
</linearGradient>
<linearGradient id="paint1_linear" x1="390.673" y1="1.66997" x2="247.928" y2="249.305" gradientUnits="userSpaceOnUse">
<stop stop-color="#00F0FF"/>
<stop offset="1" stop-color="#00F0FF" stop-opacity="0"/>
</linearGradient>
<linearGradient id="paint2_linear" x1="436.223" y1="59.7331" x2="293.478" y2="307.368" gradientUnits="userSpaceOnUse">
<stop stop-color="#00F0FF"/>
<stop offset="1" stop-color="#00F0FF" stop-opacity="0"/>
</linearGradient>
<linearGradient id="paint3_linear" x1="367.488" y1="19.0414" x2="224.743" y2="266.676" gradientUnits="userSpaceOnUse">
<stop stop-color="#00F0FF"/>
<stop offset="1" stop-color="#00F0FF" stop-opacity="0"/>
</linearGradient>
<linearGradient id="paint4_linear" x1="185.012" y1="65.2542" x2="90.5156" y2="229.127" gradientUnits="userSpaceOnUse">
<stop stop-color="#00F0FF"/>
<stop offset="1" stop-color="#00F0FF" stop-opacity="0"/>
</linearGradient>
<linearGradient id="paint5_linear" x1="118.146" y1="7.56986" x2="148.242" y2="92.9858" gradientUnits="userSpaceOnUse">
<stop stop-color="#00F0FF"/>
<stop offset="1" stop-color="#00F0FF" stop-opacity="0"/>
</linearGradient>
<linearGradient id="paint6_linear" x1="306.726" y1="285.021" x2="212.23" y2="448.893" gradientUnits="userSpaceOnUse">
<stop stop-color="#00F0FF"/>
<stop offset="1" stop-color="#00F0FF" stop-opacity="0"/>
</linearGradient>
<linearGradient id="paint7_linear" x1="239.86" y1="227.337" x2="269.956" y2="312.753" gradientUnits="userSpaceOnUse">
<stop stop-color="#04D9FF"/>
<stop offset="1" stop-color="#04D9FF" stop-opacity="0"/>
</linearGradient>
<linearGradient id="paint8_linear" x1="151.123" y1="223.73" x2="62.1301" y2="293.475" gradientUnits="userSpaceOnUse">
<stop stop-color="#00F0FF"/>
<stop offset="1" stop-color="#00F0FF" stop-opacity="0"/>
</linearGradient>
<linearGradient id="paint9_linear" x1="136.765" y1="372.392" x2="106.431" y2="396.338" gradientUnits="userSpaceOnUse">
<stop stop-color="#00F0FF"/>
<stop offset="1" stop-color="#00F0FF" stop-opacity="0"/>
</linearGradient>
</defs>
</svg>
