<svg width="146" height="157" viewBox="0 0 146 157" fill="none" xmlns="http://www.w3.org/2000/svg">
<path d="M22.1547 90.6853C13.4898 90.6853 6.40719 89.8816 6.18115 88.8769L7.46204 104.022C7.46204 111.205 14.0675 117.057 22.1547 117.057C30.2419 117.057 36.8473 111.18 36.8473 104.022L38.1283 88.8769C37.9524 89.8816 30.8698 90.6853 22.1547 90.6853Z" fill="#DEC7B2"/>
<path d="M22.1547 90.6852C13.3391 90.6852 6.20624 89.8564 6.15601 88.8518V88.8267C6.23135 87.797 13.3642 86.9933 22.1547 86.9933C30.9451 86.9933 38.0529 87.8221 38.1533 88.8267V88.8518C38.1031 89.8816 30.9451 90.6852 22.1547 90.6852Z" fill="#E8D4C1"/>
<path d="M22.1546 90.3839C14.7203 90.3839 8.6926 89.6806 8.66748 88.8267V88.8016C8.74283 87.9476 14.7455 87.2444 22.1546 87.2444C29.5637 87.2444 35.5914 87.9225 35.6417 88.8016V88.8267C35.6166 89.6806 29.5888 90.3839 22.1546 90.3839Z" fill="#BA9C7E"/>
<path d="M6.73364 95.3819C7.76338 95.407 8.768 95.8089 9.64705 96.6628C11.2796 98.2451 12.3093 100.706 13.6404 102.565C14.1428 101.56 14.5697 100.531 14.9716 99.4757C15.4488 98.2199 17.1315 97.0395 18.4627 98.0693C19.8691 99.1492 20.924 100.405 21.8533 101.937C22.6318 103.268 23.2848 104.825 24.5155 105.83C25.6959 106.784 27.0522 107.061 27.5294 105.353C27.9564 103.871 27.8057 102.264 28.2829 100.757C28.6847 99.526 29.3126 98.22 30.5935 97.6674C32.1004 97.0144 33.5571 97.8181 34.8883 98.4962C35.692 98.8981 36.4706 99.3251 37.2491 99.7771L36.9729 102.967C35.5915 102.113 33.9339 101.058 32.5274 100.857C31.6484 100.732 31.6986 101.334 31.6484 102.163C31.5981 102.917 31.5981 103.67 31.573 104.398C31.4977 105.93 31.2716 107.437 30.3675 108.693C28.4336 111.406 24.8169 111.28 22.2802 109.547C20.8989 108.618 19.9194 107.412 19.0403 106.031C18.764 105.579 18.4878 105.102 18.2115 104.65C17.1315 107.186 15.4488 109.447 12.7112 108.492C11.0033 107.889 9.89821 106.031 8.86847 104.65C8.54197 104.223 7.9643 103.168 7.38664 102.238L6.73364 95.3819Z" fill="#EBDBCD"/>
<path d="M0.454866 38.9722C0.78137 37.6913 2.31342 37.4903 3.21759 38.2438C4.92545 39.6754 5.80449 41.6344 6.75889 43.5934C7.7384 45.6529 8.94394 47.5366 10.3504 49.3198C13.2136 52.9616 16.4033 56.3773 18.513 60.5465C22.5817 68.6588 23.5613 78.2028 20.7483 86.8928C20.673 87.1691 21.2004 85.7877 20.3213 88.1988C19.5427 90.3839 16.4284 89.2034 16.4786 86.6667C16.5038 84.1803 15.8507 81.8697 14.7457 79.6595C12.5606 75.2894 9.84811 71.2206 7.71328 66.8003C5.57845 62.3548 3.66967 57.7838 2.16273 53.1123C0.655788 48.5914 -0.750685 43.7441 0.454866 38.9722Z" fill="#4C7378"/>
<path d="M20.3967 13.53C21.4766 11.5459 24.7166 12.9021 24.0636 15.0621C22.1799 21.4666 23.5361 28.2729 24.6915 34.6774C25.8719 41.2326 27.2533 47.7375 28.0821 54.343C29.5137 66.072 29.0616 79.2577 21.6273 89.0528C20.8236 90.1076 19.1409 89.2286 19.7939 87.9728C20.5223 86.5915 18.6637 77.4494 17.86 74.5108C17.0312 71.4969 16.1772 68.4579 15.4238 65.4441C13.942 59.5168 12.7364 53.4639 12.4099 47.3357C11.782 35.456 14.7205 23.9279 20.3967 13.53Z" fill="#57848A"/>
<path d="M23.9378 78.7553C24.8169 74.7619 24.1639 70.5425 25.0178 66.5491C25.8466 62.6562 27.0019 58.6879 28.8103 55.1215C30.5432 51.7309 33.1804 49.3198 36.2696 47.2352C39.183 45.251 42.6239 43.3171 43.6536 39.7005C44.2564 37.5657 47.9233 37.8671 47.6972 40.253C47.22 45.1004 45.1605 49.37 42.7997 53.5392C40.263 57.9847 38.0528 62.2544 36.797 67.2273C34.6622 75.7917 32.8288 86.8928 23.0588 89.5048C21.9035 89.8313 22.0793 87.2946 23.9378 78.7553Z" fill="#689399"/>
<path d="M127.389 7.32646L126.912 6.87437L131.533 1.90146L135.15 6.92459L134.598 7.30132L131.483 2.98144L127.389 7.32646Z" fill="#E8D4C1"/>
<path d="M111.039 136.069C109.708 136.421 108.277 135.517 107.649 133.934L104.158 125.094C103.379 123.16 104.183 121.025 105.79 120.598L107.95 120.02C109.583 119.593 111.29 121.05 111.592 123.11L112.923 132.528C113.149 134.211 112.345 135.718 111.039 136.069Z" fill="#7A5B3C"/>
<path d="M55.5083 136.069C56.8394 136.421 58.271 135.517 58.8989 133.934L62.39 125.094C63.1686 123.16 62.3649 121.025 60.7575 120.598L58.5975 120.02C56.965 119.593 55.2572 121.05 54.9558 123.11L53.6246 132.528C53.3735 134.211 54.1772 135.718 55.5083 136.069Z" fill="#7A5B3C"/>
<path d="M119.302 144.709C117.569 145.161 115.711 143.981 114.907 141.921L110.386 130.443C109.407 127.932 110.412 125.169 112.521 124.617L115.334 123.888C117.444 123.336 119.679 125.219 120.081 127.907L121.789 140.138C122.09 142.298 121.035 144.257 119.302 144.709Z" fill="#A67C52"/>
<path d="M47.2202 144.709C48.9532 145.161 50.8118 143.981 51.6155 141.921L56.1363 130.443C57.1158 127.932 56.1112 125.169 54.0015 124.617L51.1885 123.888C49.0788 123.336 46.8435 125.219 46.4416 127.907L44.7338 140.138C44.4575 142.298 45.4873 144.257 47.2202 144.709Z" fill="#A67C52"/>
<path d="M124.777 99.099H43.0259C38.1284 99.099 34.1099 95.1056 34.1099 90.1829V56.3522C34.1099 51.4546 38.1033 47.4361 43.0259 47.4361H124.777C129.675 47.4361 133.693 51.4295 133.693 56.3522V90.1829C133.693 95.1056 129.675 99.099 124.777 99.099Z" fill="#069DA7"/>
<path d="M127.816 82.4474C126.31 82.4725 125.054 83.6278 124.928 85.1347C124.376 90.8862 122.743 103.997 119.202 110.527C116.766 115.022 109.582 115.424 107.674 115.449H60.0544C58.1457 115.424 50.9877 115.022 48.5264 110.527C44.9851 103.997 43.3274 90.9113 42.8 85.1347C42.6493 83.6278 41.4186 82.4976 39.9117 82.4474L24.767 82.2213C23.034 82.1962 21.6526 83.6529 21.7782 85.3859C22.2805 92.569 24.2647 110.225 31.9249 121.603C36.0941 127.756 42.574 129.665 44.2065 130.067C45.1358 130.368 123.296 130.192 123.924 130.042C126.008 129.464 131.91 127.354 135.803 121.628C143.489 110.275 145.473 92.5941 145.95 85.411C146.076 83.678 144.694 82.2213 142.961 82.2464L127.816 82.4474Z" fill="#069DA7"/>
<path d="M60.0294 115.525H107.699C109.608 115.5 116.791 115.098 119.227 110.602C122.994 103.67 124.602 89.329 125.079 84.2054C125.179 83.1255 124.953 82.0455 124.451 81.0911L121.312 75.1387C121.136 74.8122 120.633 74.8875 120.583 75.2391C119.729 79.4837 116.54 94.7038 114.882 95.8088C112.948 97.0897 53.9514 95.9847 51.691 95.8088C49.7571 95.6833 47.7479 80.0362 47.1953 75.415C47.1451 75.0382 46.6176 74.9378 46.4418 75.2894L43.4029 81.0409C42.8754 82.0455 42.6494 83.1757 42.7498 84.2808C43.2019 89.3792 44.8093 103.72 48.5767 110.602C50.9627 115.073 58.1457 115.5 60.0294 115.525Z" fill="#05676D"/>
<path d="M112.345 115.449H54.1772C54.0014 115.449 53.8507 115.449 53.7 115.424C47.848 115.198 44.0807 109.597 46.2155 104.574L48.8527 98.3707C49.0787 97.8432 49.6061 96.4619 49.6061 96.4619C51.8666 91.4136 55.4581 90.1578 60.4561 90.1578H106.091C111.089 90.1578 115.66 92.7447 117.042 96.713C117.042 96.713 117.469 97.8432 117.695 98.3707L120.332 104.574C122.467 109.597 118.699 115.198 112.847 115.424C112.672 115.449 112.496 115.449 112.345 115.449Z" fill="#05676D"/>
<path d="M42.7749 84.2305C42.6744 83.1003 42.9004 81.9701 43.4279 80.9906L46.4669 75.2391C46.6427 74.9126 47.0947 74.988 47.1952 75.3145C47.1952 75.3145 47.1199 74.2596 44.9348 74.1089H36.3452C34.8634 74.1089 33.4067 74.5359 32.1509 75.3396L24.2897 80.4381C22.6321 81.5181 21.6526 83.4017 21.7531 85.3858C21.6275 83.6529 23.0088 82.1962 24.7418 82.2213L39.8866 82.4473C41.293 82.4724 42.4735 83.4771 42.7497 84.8333L42.7749 84.8584C42.8 84.6575 42.7749 84.4315 42.7749 84.2305Z" fill="#06B6C1"/>
<path d="M125.079 84.2305C125.179 83.1003 124.853 81.9952 124.325 80.9906L121.286 75.2643C121.111 74.9378 120.659 75.0131 120.558 75.3396C120.558 75.3396 120.633 74.2848 122.819 74.1341H131.383C132.865 74.1341 134.347 74.561 135.577 75.3647L143.438 80.4632C145.121 81.5432 146.076 83.4519 145.975 85.411C146.101 83.678 144.694 82.2213 142.986 82.2464L127.842 82.4724C126.41 82.4976 125.305 83.5022 125.054 84.8584C125.029 84.8835 125.054 84.4315 125.079 84.2305Z" fill="#06B6C1"/>
<path d="M122.567 95.7586C122.567 95.7586 125.028 96.0349 126.812 97.8683C128.595 99.7018 127.992 102.766 126.812 103.72C124.752 105.353 120.784 105.353 117.795 105.353C114.806 105.353 112.822 104.675 112.822 104.675L116.64 95.2061C116.64 95.2061 119.026 94.7791 122.567 95.7586Z" fill="#06B6C1"/>
<path d="M87.3047 124.416C85.8229 127.103 84.3661 129.765 82.9094 132.427C81.9299 134.211 83.2862 136.647 84.994 137.325C87.0786 138.154 88.9121 137.024 89.8916 135.24C91.3734 132.553 92.8301 129.891 94.2868 127.228C95.2663 125.445 93.9101 123.009 92.2022 122.331C90.1427 121.477 88.2842 122.607 87.3047 124.416Z" fill="#FCB58A"/>
<path d="M101.043 39.7005C101.043 39.7005 97.8031 29.3277 96.698 24.9576C95.0153 18.2015 90.394 14.1328 83.8891 14.1328C77.2837 14.1328 72.6624 18.2768 70.8289 25.0078C68.9704 31.9398 66.5342 39.1731 66.5342 39.1731C66.2579 40.1023 66.71 41.0819 67.589 41.4335C69.6736 42.2623 74.0689 43.7441 83.8891 43.6186C92.6544 43.493 97.1752 42.2623 99.4608 42.0363C100.591 41.8856 101.344 40.8056 101.043 39.7005Z" fill="#067981"/>
<path d="M87.6312 36.4355H80.1467V49.37C80.1467 50.3495 80.9253 51.1281 81.9048 51.1281H85.8731C86.8526 51.1281 87.6312 50.3495 87.6312 49.37V36.4355Z" fill="#FCB58A"/>
<path d="M83.7887 13.1031C86.3687 13.1031 88.4602 11.0115 88.4602 8.43153C88.4602 5.85152 86.3687 3.76003 83.7887 3.76003C81.2087 3.76003 79.1172 5.85152 79.1172 8.43153C79.1172 11.0115 81.2087 13.1031 83.7887 13.1031Z" fill="#067981"/>
<path d="M145.674 28.6748H115.158C114.982 28.6748 114.832 28.524 114.832 28.3482V6.97483C114.832 6.79902 114.982 6.64832 115.158 6.64832H145.674C145.849 6.64832 146 6.79902 146 6.97483V28.3733C146 28.524 145.849 28.6748 145.674 28.6748Z" fill="#EBDBCD"/>
<path d="M141.605 25.4599H119.227C119.076 25.4599 118.976 25.3343 118.976 25.2088V10.1394C118.976 9.98869 119.101 9.88823 119.227 9.88823H141.605C141.755 9.88823 141.856 10.0138 141.856 10.1394V25.2088C141.856 25.3343 141.73 25.4599 141.605 25.4599Z" fill="#FCFAF8"/>
<path d="M44.3823 90.3588C44.3823 84.4566 50.1338 80.3376 56.1616 78.8307C68.4431 75.6912 90.0426 79.7851 90.0426 79.7851L78.6401 87.0435C78.6401 87.0435 89.1133 89.9569 91.7253 90.5094C94.3373 91.062 111.341 95.5075 111.617 95.9344C111.893 96.3614 105.363 105.026 105.363 105.026C105.363 105.026 73.4914 105.403 63.6963 104.122C53.876 102.816 44.3823 100.43 44.3823 90.3588Z" fill="#154C50"/>
<path d="M77.1832 87.0937C82.357 88.2993 90.0675 90.5346 93.5335 91.6146C97.0748 92.7196 98.431 93.7996 98.431 93.7996C98.431 93.7996 91.9763 99.4506 89.1383 110.652C87.5309 116.956 84.4667 125.37 83.9393 127.229C83.864 127.505 83.9142 127.806 84.1151 128.032C84.743 128.71 86.1746 130.167 87.7067 130.996C89.5903 132.026 93.0061 133.181 93.3577 132.679C93.3577 132.679 108.352 118.011 114.179 109.597C120.03 101.184 125.405 94.3522 123.095 88.4751C121.211 83.678 117.017 80.8399 110.06 79.3581C99.4105 77.1228 87.0285 78.0019 87.0285 78.0019C87.0285 78.0019 86.3002 79.8353 83.4872 83.1003C81.1766 85.838 77.0827 87.0937 77.1832 87.0937Z" fill="#144447"/>
<path d="M72.7629 36.6615C71.5573 36.6615 71.5322 33.1704 71.5322 32.7686C71.5322 32.3667 71.5573 28.8757 72.7629 28.8757C73.9684 28.8757 73.9936 32.3667 73.9936 32.7686C74.0187 33.1453 73.9684 36.6615 72.7629 36.6615ZM72.7629 29.5287C72.5368 29.7547 72.1852 30.91 72.1852 32.7686C72.1852 34.602 72.5368 35.7825 72.7629 36.0085C72.9889 35.7825 73.3406 34.6271 73.3406 32.7686C73.3406 30.8849 72.9889 29.7296 72.7629 29.5287Z" fill="white"/>
<path d="M94.7893 36.6615C93.5837 36.6615 93.5586 33.1704 93.5586 32.7686C93.5586 32.3667 93.5837 28.8757 94.7893 28.8757C95.9948 28.8757 96.0199 32.3667 96.0199 32.7686C96.0199 33.1453 95.9948 36.6615 94.7893 36.6615ZM94.7893 29.5287C94.5632 29.7547 94.2116 30.91 94.2116 32.7686C94.2116 34.602 94.5632 35.7825 94.7893 36.0085C95.0153 35.7825 95.3669 34.6271 95.3669 32.7686C95.3669 30.8849 95.0153 29.7296 94.7893 29.5287Z" fill="white"/>
<path d="M83.8891 39.2233C90.7413 39.2233 96.2962 33.6685 96.2962 26.8162C96.2962 19.9639 90.7413 14.4091 83.8891 14.4091C77.0368 14.4091 71.4819 19.9639 71.4819 26.8162C71.4819 33.6685 77.0368 39.2233 83.8891 39.2233Z" fill="#FCB58A"/>
<path d="M71.2306 27.7204C71.2557 27.9213 71.2557 28.1222 71.2809 28.298C71.2809 28.3231 71.2808 28.3482 71.306 28.3734C71.3311 28.5994 71.3562 28.8003 71.3813 29.0012V29.0264C71.4064 29.2524 71.4567 29.4785 71.5069 29.7045C72.3357 26.2888 75.4249 23.7521 79.0918 23.7521C79.5439 23.7521 79.996 23.7772 80.4229 23.8776C80.7494 23.953 81.1011 24.0032 81.4276 24.0032C83.7382 24.0032 85.647 22.2703 85.8982 20.0099C85.8982 20.0099 85.9233 20.0098 85.9233 19.9847C85.8982 20.2108 85.8479 20.4619 85.8479 20.7131C85.8479 23.3502 87.9828 25.4851 90.6199 25.4851H90.645C93.2319 26.0125 95.2914 27.9213 96.0449 30.4077C96.1956 29.8552 96.3211 29.2775 96.4216 28.725C96.4216 28.6999 96.4216 28.6747 96.4216 28.6496C96.4467 28.4236 96.4969 28.1724 96.4969 27.9213C96.4969 27.8459 96.5221 27.7957 96.5221 27.7455C96.5472 27.4692 96.5472 27.1929 96.5472 26.9167C96.5472 26.6906 96.5472 26.4394 96.5221 26.2385C96.5221 26.1632 96.4969 26.113 96.4969 26.0376C96.4718 25.8618 96.4718 25.7111 96.4718 25.5604C96.4718 25.4851 96.4467 25.4097 96.4467 25.3344C96.4216 25.1837 96.4216 25.033 96.3714 24.8823C96.3463 24.8069 96.3463 24.7316 96.3463 24.6563C96.3211 24.5056 96.296 24.3549 96.2709 24.2042C96.2458 24.1288 96.2458 24.0786 96.2207 24.0032C96.1956 23.8525 96.1453 23.6767 96.0951 23.5261C96.07 23.4758 96.07 23.4005 96.0449 23.3502C95.9946 23.1744 95.9444 23.0237 95.8942 22.8479C95.8691 22.7977 95.8691 22.7726 95.8439 22.7223C95.7686 22.5465 95.7184 22.3456 95.643 22.1949C95.6179 22.1698 95.6179 22.1447 95.6179 22.1196C95.5426 21.9186 95.4421 21.7177 95.3416 21.5168C94.2617 19.181 92.4533 17.2471 90.2432 15.9662C89.5399 15.5644 88.8116 15.2128 88.033 14.9365C88.0079 14.9114 87.9827 14.9114 87.9576 14.9114C87.7316 14.836 87.5056 14.7607 87.2795 14.6853C87.2544 14.6602 87.2042 14.6602 87.1539 14.6602C86.6516 14.5346 86.1493 14.4342 85.6219 14.3337C85.5465 14.3086 85.4963 14.3086 85.421 14.3086C85.22 14.2835 85.0442 14.2584 84.8433 14.2333C84.768 14.2333 84.6926 14.2081 84.6173 14.2081C84.3661 14.183 84.0898 14.183 83.8387 14.183C76.8314 14.183 71.1553 19.8591 71.1553 26.8664C71.1553 27.0925 71.1553 27.3436 71.1804 27.5697C71.2306 27.645 71.2306 27.6701 71.2306 27.7204Z" fill="#067981"/>
<path d="M81.101 134.06C80.8248 134.386 78.5644 137.526 78.3634 139.184C78.2127 140.339 77.5346 142.449 77.0574 145.262C76.5802 148.074 75.1235 154.027 79.4936 155.634C83.1856 156.991 84.0647 154.705 84.8433 153.625C85.6218 152.545 87.8069 144.081 87.9827 143.177C88.3092 141.343 90.3436 135.492 90.3436 135.492C90.5696 135.014 90.6952 134.813 90.1678 134.663C89.1883 134.386 87.7064 133.859 86.6265 133.357C85.446 132.804 84.2656 131.724 83.5875 131.172C83.3614 130.971 83.2107 130.845 83.06 131.096C83.06 131.121 81.1261 134.06 81.101 134.06Z" fill="#06B6C1"/>
<path d="M63.9724 56.4024C60.1297 59.8432 57.0656 64.1129 56.7642 69.4374C56.4629 74.9126 59.753 79.107 64.5501 81.3171C65.9817 81.9953 67.6895 81.719 68.5435 80.2623C69.2718 79.0065 68.9202 76.9219 67.4886 76.2689C64.324 74.8122 62.139 72.6522 62.6413 68.9351C63.1185 65.4692 65.6049 62.7818 68.0914 60.5716C70.9043 58.0601 66.7603 53.916 63.9724 56.4024Z" fill="#FCB58A"/>
<path d="M98.1547 60.5214C99.4356 62.2041 100.541 63.9873 101.47 65.871C102.249 67.4784 103.303 69.3621 103.103 71.2206C102.676 75.0633 98.4561 77.1479 95.4422 78.7805C92.1521 80.5637 95.0655 85.637 98.3808 83.8287C102.952 81.3423 107.849 78.1023 108.754 72.5518C109.231 69.6886 108.402 67.1017 107.221 64.5148C106.116 62.0534 104.835 59.7177 103.178 57.5577C102.198 56.3271 100.666 55.6238 99.1845 56.5029C97.9789 57.2563 97.1752 59.2656 98.1547 60.5214Z" fill="#F0A173"/>
<path d="M95.9697 47.411C92.78 45.7283 89.2136 44.8995 87.6313 44.6483C87.1541 46.7078 86.0742 47.838 83.7635 47.838C81.4027 47.838 80.5989 46.6576 80.1469 44.5478C79.6697 44.573 78.213 44.8995 77.8613 44.9246C73.7173 45.3013 70.8541 46.984 68.7192 48.4659C65.7807 50.5002 62.6161 54.5187 61.3352 56.2266C60.9585 56.7038 60.9836 57.3819 61.3604 57.8591C62.0636 58.6879 63.244 59.9939 64.4496 60.7976C66.5844 62.2292 70.1508 62.2293 70.1508 62.2293L70.6783 57.3066C70.6783 57.3066 69.7741 62.6562 69.5983 66.2226C69.3723 70.0905 69.5983 73.5564 69.5983 73.5564L96.673 74.1089C96.673 74.1089 97.6525 70.2663 97.0748 64.9669C96.9241 63.5855 95.4423 57.7084 95.4423 57.7084L96.6981 61.6014C96.6981 61.6014 98.5817 61.6767 101.822 60.2451C102.801 59.8181 104.183 58.7633 104.986 58.1103C105.363 57.834 105.413 57.2815 105.137 56.9299C103.73 54.9457 99.2096 49.1189 95.9697 47.411Z" fill="white"/>
<path d="M83.889 39.1982C82.583 39.1982 81.3272 38.9973 80.1467 38.6205V40.9312C81.3272 41.3079 82.6332 41.3079 83.9392 41.2074C85.6973 41.0316 86.4508 40.7051 87.6312 40.2028V38.6205C86.4759 38.9973 85.2201 39.1982 83.889 39.1982Z" fill="#E3996D"/>
<path d="M131.332 3.86049C131.257 3.86049 131.157 3.83538 131.081 3.73492C130.956 3.60934 131.006 3.40842 131.132 3.30796L133.593 1.32382C133.718 1.22336 133.919 1.24846 134.02 1.37404C134.145 1.49962 134.095 1.70056 133.97 1.80102L131.508 3.78513C131.483 3.83537 131.408 3.86049 131.332 3.86049Z" fill="#D4BFA9"/>
<path d="M134.682 2.39649C135.046 2.14277 135.039 1.50348 134.666 0.968563C134.294 0.433649 133.696 0.205672 133.332 0.459389C132.968 0.713106 132.975 1.35243 133.347 1.88734C133.72 2.42225 134.317 2.65021 134.682 2.39649Z" fill="#D4BFA9"/>
<path d="M83.7383 85.6119C88.0582 86.6165 92.4283 87.3951 96.7231 88.4751C98.8579 89.0025 100.993 89.6053 103.077 90.3588C103.555 90.5346 104.057 90.7104 104.509 90.8862C104.735 90.9867 104.986 91.062 105.237 91.1625C105.413 91.2378 105.84 91.3383 105.966 91.489C106.167 91.7653 105.564 92.3178 105.413 92.5187C105.036 92.9457 104.685 93.3726 104.333 93.7996C99.0086 100.229 94.1362 107.036 90.1428 114.394C87.9326 118.488 86.0238 122.708 84.4666 127.078C84.2406 127.681 85.2201 127.957 85.4461 127.354C88.2842 119.292 92.4534 111.732 97.2756 104.725C99.7118 101.184 102.324 97.7679 105.087 94.4526C105.413 94.0256 105.765 93.6238 106.116 93.222C106.443 92.8452 106.794 92.4936 106.945 92.0164C107.071 91.5894 107.02 91.1122 106.694 90.7857C106.367 90.4592 105.815 90.3085 105.388 90.1578C103.303 89.3039 101.143 88.6258 98.9584 88.023C94.0357 86.6668 88.9875 85.7877 84.0146 84.6324C83.3616 84.5068 83.1104 85.4612 83.7383 85.6119Z" fill="white"/>
<path d="M68.041 62.1037C68.041 62.1037 69.6735 60.3707 70.2512 59.1903C70.8288 57.9847 71.5321 55.7494 71.5321 55.7494C71.5321 55.7494 71.0298 59.0396 70.7284 60.4711C70.3014 62.4553 69.8242 63.4097 69.8242 63.4097L68.2671 63.3343C68.2671 63.3343 68.1917 63.058 68.1666 62.7567C68.1164 62.4553 68.041 62.1037 68.041 62.1037Z" fill="#E0E0E0"/>
<path d="M98.1546 62.7064C98.1546 62.7064 96.7481 60.8228 96.296 59.567C95.844 58.3112 95.417 56.0005 95.417 56.0005C95.417 56.0005 95.5426 59.3409 95.6681 60.7725C95.8691 62.8069 96.2458 63.8115 96.2458 63.8115L97.803 63.8869C97.803 63.8869 97.9034 63.6106 97.9788 63.3092C98.0541 63.0329 98.1546 62.7064 98.1546 62.7064Z" fill="#E0E0E0"/>
<path d="M99.5863 84.7328H66.9359C65.856 84.7328 64.9016 83.9543 64.6755 82.8743L60.8077 63.3846C60.5314 61.953 61.6114 60.6469 63.0681 60.6469H104.71C106.217 60.6469 107.322 62.0785 106.945 63.5352L101.796 83.025C101.545 84.0296 100.616 84.7328 99.5863 84.7328Z" fill="#C5C6E3"/>
<path d="M87.2292 73.3806C87.1037 75.1136 85.5967 76.5451 83.8889 76.5451C82.181 76.5451 80.6992 75.1387 80.5485 73.4057C80.3978 71.6727 81.9047 70.2411 83.8889 70.2411C85.873 70.216 87.3799 71.6225 87.2292 73.3806Z" fill="#E8E9FF"/>
<path d="M125.682 15.6648C126.711 14.6853 128.67 14.2584 129.826 14.8109C130.981 15.3634 130.579 15.2379 130.981 15.3635C131.383 15.489 132.111 15.3132 132.814 15.8406C133.593 16.4685 135.075 18.1513 134.271 20.3615C133.593 22.2451 131.383 23.8526 128.746 23.4005C126.108 22.9484 124.802 21.3661 124.451 20.035C124.049 18.4527 124.677 16.5941 125.682 15.6648Z" fill="#FF5856"/>
<path d="M131.232 15.9662C131.232 15.9662 131.157 13.3291 132.814 12.7263C134.472 12.1235 137.159 11.2947 137.034 11.4705C136.908 11.6212 136.255 14.4844 135.15 15.2379C133.442 16.4183 131.232 15.9662 131.232 15.9662Z" fill="#1F6771"/>
<path d="M129.474 16.3178C129.474 16.3178 129.725 15.0369 129.775 14.2835C129.876 12.7263 129.851 11.9477 129.851 11.9477L131.182 12.1738C131.182 12.1738 131.006 14.0072 130.855 14.6602C130.579 15.8406 130.177 16.5439 130.177 16.5439C130.177 16.5439 129.926 16.7448 129.7 16.6192C129.474 16.5188 129.474 16.3178 129.474 16.3178Z" fill="#6B4D3A"/>
<path d="M131.191 12.1632C131.227 11.9864 130.958 11.7835 130.59 11.71C130.223 11.6365 129.897 11.7203 129.861 11.8971C129.826 12.0739 130.095 12.2769 130.462 12.3503C130.83 12.4238 131.156 12.34 131.191 12.1632Z" fill="#8A634B"/>
</svg>
