<svg width="520" height="283" viewBox="0 0 520 283" fill="none" xmlns="http://www.w3.org/2000/svg">
<g clip-path="url(#clip0)">
<path d="M261.669 283C402.671 283 516.976 275.426 516.976 266.084C516.976 256.741 402.671 249.168 261.669 249.168C120.666 249.168 6.36131 256.741 6.36131 266.084C6.36131 275.426 120.666 283 261.669 283Z" fill="#383838"/>
<path d="M251.883 80.8989C210.287 80.8989 180.421 107.608 180.421 169.93C180.421 240.562 210.287 259.258 251.883 259.258C293.48 259.258 325.125 238.781 325.125 169.93C325.125 96.331 293.48 80.8989 251.883 80.8989ZM252.157 235.813C223.346 235.813 208.294 218.897 208.294 169.976C208.294 126.81 223.962 104.047 252.773 104.047C281.584 104.047 297.251 118.999 297.251 169.976C297.251 217.663 280.967 235.813 252.157 235.813Z" fill="#1D868C"/>
<path d="M155.513 209.994H138.314V159.307C138.314 156.615 137.246 154.033 135.344 152.129C133.442 150.226 130.862 149.156 128.172 149.156H124.142C122.81 149.156 121.491 149.419 120.261 149.929C119.03 150.439 117.912 151.187 116.97 152.129C116.028 153.072 115.281 154.191 114.771 155.423C114.262 156.654 113.999 157.974 113.999 159.307V209.994H65.4886C64.4906 209.994 63.5096 209.736 62.6407 209.245C61.7718 208.754 61.0445 208.046 60.5294 207.19C60.0142 206.335 59.7288 205.361 59.7007 204.362C59.6726 203.364 59.9029 202.375 60.3691 201.492L111.712 104.235C112.353 103.022 112.74 101.692 112.853 100.326C112.965 98.9588 112.8 97.5834 112.367 96.2824C111.933 94.9814 111.241 93.7817 110.332 92.7559C109.422 91.73 108.315 90.8992 107.076 90.3136L104.045 88.8812C101.691 87.7689 99.0005 87.6046 96.5294 88.4224C94.0584 89.2402 91.996 90.9774 90.769 93.2747L28.149 210.515C27.0827 212.511 26.5248 214.74 26.5248 217.004C26.5248 218.811 26.8806 220.601 27.5717 222.271C28.2629 223.941 29.2759 225.458 30.553 226.737C31.8301 228.015 33.3462 229.029 35.0149 229.72C36.6835 230.412 38.4719 230.768 40.2779 230.768H113.999V262.819C113.999 264.417 114.314 266 114.925 267.476C115.536 268.952 116.431 270.293 117.56 271.423C118.689 272.553 120.029 273.449 121.504 274.061C122.979 274.672 124.56 274.987 126.157 274.987H126.157C127.753 274.987 129.334 274.672 130.809 274.061C132.284 273.449 133.625 272.553 134.754 271.423C135.882 270.293 136.778 268.952 137.389 267.476C138 266 138.314 264.417 138.314 262.819V230.768H155.513C158.265 230.768 160.905 229.674 162.851 227.726C164.798 225.778 165.891 223.136 165.891 220.381C165.891 217.626 164.798 214.984 162.851 213.037C160.905 211.089 158.265 209.994 155.513 209.994Z" fill="#00F0FF"/>
<path d="M473.98 209.994H456.781V159.307C456.781 156.615 455.713 154.033 453.811 152.129C451.909 150.226 449.329 149.156 446.639 149.156H442.609C441.277 149.156 439.958 149.419 438.728 149.929C437.497 150.439 436.379 151.187 435.437 152.129C434.495 153.072 433.748 154.191 433.238 155.423C432.729 156.654 432.466 157.974 432.466 159.307V209.994H383.956C382.958 209.994 381.977 209.736 381.108 209.245C380.239 208.754 379.511 208.046 378.996 207.19C378.481 206.335 378.196 205.361 378.168 204.362C378.14 203.364 378.37 202.375 378.836 201.492L430.179 104.235C430.819 103.022 431.207 101.692 431.32 100.326C431.432 98.9588 431.267 97.5834 430.834 96.2824C430.4 94.9814 429.708 93.7817 428.799 92.7559C427.889 91.73 426.782 90.8992 425.542 90.3136L422.512 88.8812C420.158 87.7689 417.467 87.6046 414.996 88.4224C412.525 89.2402 410.463 90.9774 409.236 93.2747L346.616 210.515C345.55 212.511 344.992 214.74 344.992 217.004C344.992 220.654 346.441 224.155 349.02 226.737C351.599 229.318 355.097 230.768 358.745 230.768H432.466V262.819C432.466 266.046 433.747 269.141 436.027 271.423C438.307 273.705 441.399 274.987 444.624 274.987C447.848 274.987 450.941 273.705 453.22 271.423C455.5 269.141 456.781 266.046 456.781 262.819V230.768H473.98C476.732 230.768 479.372 229.674 481.318 227.726C483.265 225.778 484.358 223.136 484.358 220.381C484.358 217.626 483.265 214.984 481.318 213.037C479.372 211.089 476.732 209.994 473.98 209.994Z" fill="#00F0FF"/>
<path d="M160.258 204.059H143.059V153.372C143.059 152.039 142.797 150.719 142.287 149.487C141.777 148.256 141.03 147.136 140.088 146.194C139.147 145.251 138.029 144.504 136.798 143.993C135.567 143.483 134.249 143.221 132.917 143.221H128.887C126.197 143.221 123.617 144.29 121.715 146.194C119.813 148.098 118.744 150.679 118.744 153.372V204.059H70.2333C69.2353 204.059 68.2543 203.801 67.3854 203.309C66.5165 202.818 65.7892 202.11 65.2741 201.255C64.759 200.399 64.4735 199.425 64.4454 198.427C64.4174 197.428 64.6476 196.44 65.1138 195.557L116.457 98.2991C117.097 97.0866 117.485 95.7568 117.598 94.39C117.71 93.0232 117.545 91.6478 117.111 90.3468C116.678 89.0458 115.986 87.8462 115.076 86.8203C114.167 85.7945 113.059 84.9637 111.82 84.3781L108.789 82.9456C106.436 81.8333 103.745 81.6691 101.274 82.4869C98.8031 83.3047 96.7407 85.0419 95.5137 87.3391L32.8938 204.579C31.8274 206.576 31.2695 208.804 31.2695 211.068V211.068C31.2695 214.719 32.7185 218.22 35.2977 220.801C37.877 223.382 41.3751 224.833 45.0227 224.833H118.744V256.884C118.744 258.482 119.059 260.064 119.67 261.54C120.281 263.016 121.176 264.358 122.305 265.488C123.434 266.618 124.774 267.514 126.249 268.125C127.724 268.737 129.305 269.051 130.902 269.051H130.902C134.126 269.051 137.218 267.77 139.498 265.488C141.778 263.206 143.059 260.111 143.059 256.884V224.833H160.257C161.62 224.833 162.97 224.564 164.229 224.042C165.488 223.52 166.632 222.755 167.596 221.79C168.56 220.826 169.324 219.681 169.846 218.421C170.367 217.16 170.636 215.81 170.636 214.446V214.446C170.636 213.082 170.367 211.731 169.846 210.471C169.324 209.211 168.56 208.066 167.596 207.101C166.632 206.136 165.488 205.371 164.229 204.849C162.97 204.327 161.62 204.059 160.258 204.059V204.059Z" stroke="#244C4F" stroke-miterlimit="10"/>
<path d="M482.875 204.059H465.677V153.372C465.677 150.679 464.608 148.098 462.706 146.194C460.804 144.29 458.224 143.221 455.534 143.221H451.505C450.173 143.221 448.854 143.483 447.623 143.993C446.393 144.504 445.275 145.251 444.333 146.194C443.391 147.136 442.644 148.256 442.134 149.487C441.624 150.719 441.362 152.039 441.362 153.372V204.059H392.851C391.853 204.059 390.872 203.801 390.003 203.309C389.134 202.818 388.407 202.11 387.892 201.255C387.377 200.399 387.091 199.425 387.063 198.427C387.035 197.428 387.266 196.44 387.732 195.557L439.075 98.2991C439.715 97.0866 440.103 95.7568 440.216 94.39C440.328 93.0232 440.163 91.6478 439.729 90.3468C439.296 89.0458 438.604 87.8462 437.694 86.8203C436.785 85.7945 435.677 84.9637 434.438 84.3781L431.407 82.9456C429.054 81.8333 426.363 81.6691 423.892 82.4869C421.421 83.3047 419.359 85.0419 418.132 87.3391L355.512 204.579C354.445 206.576 353.887 208.804 353.887 211.068C353.887 214.719 355.336 218.22 357.916 220.801C360.495 223.382 363.993 224.833 367.641 224.833H441.362V256.884C441.362 260.111 442.643 263.206 444.923 265.488C447.203 267.77 450.295 269.051 453.52 269.051V269.051C456.744 269.051 459.836 267.77 462.116 265.488C464.396 263.206 465.677 260.111 465.677 256.884V224.833H482.875C484.238 224.833 485.588 224.564 486.847 224.042C488.106 223.52 489.25 222.755 490.214 221.79C491.178 220.826 491.942 219.681 492.464 218.421C492.985 217.16 493.254 215.81 493.254 214.446V214.446C493.254 211.691 492.16 209.049 490.214 207.101C488.268 205.153 485.628 204.059 482.875 204.059V204.059Z" stroke="#244C4F" stroke-miterlimit="10"/>
<path d="M261.372 75.5571C219.775 75.5571 189.91 102.267 189.91 164.588C189.91 235.22 219.775 253.916 261.372 253.916C302.968 253.916 334.613 233.439 334.613 164.588C334.613 90.9892 302.968 75.5571 261.372 75.5571ZM261.645 230.472C232.835 230.472 217.783 213.555 217.783 164.634C217.783 121.468 233.451 98.7053 262.262 98.7053C291.072 98.7053 306.74 113.658 306.74 164.634C306.74 212.322 290.456 230.472 261.645 230.472V230.472Z" stroke="#244C4F" stroke-miterlimit="10"/>
<path d="M228.03 15.0899C231.478 15.0899 234.274 12.292 234.274 8.84061C234.274 5.38922 231.478 2.59131 228.03 2.59131C224.581 2.59131 221.786 5.38922 221.786 8.84061C221.786 12.292 224.581 15.0899 228.03 15.0899Z" fill="#1D868C"/>
<path d="M243.259 45.4217C252.932 45.4217 260.773 35.2537 260.773 22.7109C260.773 10.168 252.932 0 243.259 0C233.587 0 225.746 10.168 225.746 22.7109C225.746 35.2537 233.587 45.4217 243.259 45.4217Z" fill="#1D868C"/>
<path opacity="0.1" d="M243.259 38.5626C234.486 38.5626 227.219 30.1968 225.944 19.2812C225.812 20.4196 225.745 21.5647 225.746 22.7107C225.746 35.2536 233.587 45.4216 243.259 45.4216C252.932 45.4216 260.773 35.2536 260.773 22.7107C260.774 21.5647 260.707 20.4196 260.575 19.2812C259.3 30.1968 252.033 38.5626 243.259 38.5626Z" fill="black"/>
<path d="M278.898 89.2206C278.522 90.7675 276.9 92.0063 275.104 92.8719C271.328 94.6917 266.671 95.2348 262.153 95.417C261 95.4871 259.844 95.4657 258.695 95.3531C256.468 95.1375 254.379 94.1764 252.766 92.6252C252.651 92.5501 252.556 92.447 252.492 92.3255C252.427 92.2041 252.394 92.0682 252.396 91.9306C252.399 91.793 252.436 91.6583 252.504 91.5388C252.572 91.4194 252.669 91.3192 252.787 91.2477C255.192 88.6034 259.206 86.982 263.249 85.8146C266.315 84.9294 271.661 82.6366 275.005 82.946C278.244 83.2457 279.373 87.2674 278.898 89.2206Z" fill="#244C4F"/>
<path opacity="0.1" d="M278.898 89.2206C278.522 90.7675 276.9 92.0063 275.104 92.8719C271.328 94.6917 266.671 95.2348 262.153 95.417C261 95.4871 259.844 95.4657 258.695 95.3531C256.468 95.1375 254.379 94.1764 252.766 92.6252C252.651 92.5501 252.556 92.447 252.492 92.3255C252.427 92.2041 252.394 92.0682 252.396 91.9306C252.399 91.793 252.436 91.6583 252.504 91.5388C252.572 91.4194 252.669 91.3192 252.787 91.2477C255.192 88.6034 259.206 86.982 263.249 85.8146C266.315 84.9294 271.661 82.6366 275.005 82.946C278.244 83.2457 279.373 87.2674 278.898 89.2206Z" fill="black"/>
<path d="M230.887 77.6593C229.734 79.9203 229.525 82.5467 230.307 84.9615C231.101 87.3581 232.588 89.4648 234.58 91.015C239.466 94.9345 246.19 95.4739 252.451 95.4195C257.939 95.3717 263.419 94.9958 268.861 94.2938C270.685 94.132 272.477 93.7155 274.186 93.0565C276.229 92.1716 278.025 90.5485 278.753 88.4422C279.48 86.336 278.964 83.7569 277.236 82.3513C275.718 81.1162 273.624 80.9463 271.671 80.8289L260.497 80.1568C261.601 79.0386 263.071 78.4062 264.415 77.5933C266.199 76.5148 267.384 74.7041 268.681 73.0716C270.679 70.6814 272.853 68.4442 275.185 66.3787C275.549 68.4666 276.868 70.1811 278.422 71.6218C279.975 73.0624 281.765 74.2222 283.38 75.5939C287.29 78.9161 290.105 83.4251 294.217 86.4931C297.046 85.7491 299.691 84.4278 301.985 82.612L300.387 79.7146C300.253 79.4164 300.046 79.1574 299.784 78.9624C299.332 78.6839 298.749 78.8274 298.223 78.7486C296.819 78.5379 296.206 76.9156 295.655 75.6061C294.143 72.011 291.247 69.2218 288.774 66.2069C286.949 63.9815 285.329 61.5944 283.936 59.0752C283.105 57.5728 282.345 56.0085 281.217 54.7141C280.09 53.4197 278.51 52.4021 276.794 52.3984C275.278 52.3952 273.88 53.1655 272.577 53.9403C268.607 56.3003 264.787 58.9048 261.14 61.7386C259.231 63.2217 257.334 64.7886 255.095 65.698C254.152 66.0809 253.159 66.3425 252.254 66.8084C250.67 67.6243 249.468 69.0048 248.173 70.2302C243.557 74.601 237.237 77.4329 230.887 77.6593Z" fill="#244C4F"/>
<path d="M254.252 46.5498C254.2 47.8858 253.916 49.2026 253.413 50.4411C253.158 51.0588 252.778 51.6173 252.298 52.0817C251.818 52.5462 251.247 52.9066 250.621 53.1405C249.733 53.3787 248.802 53.4089 247.9 53.2289C247.113 53.1467 246.355 52.8883 245.682 52.4729C244.635 51.7519 244.112 50.4655 243.922 49.2065C243.732 47.949 243.817 46.6641 243.695 45.3975C243.576 44.3744 243.382 43.3616 243.113 42.3673C243.031 42.0366 242.947 41.7073 242.865 41.3781C242.784 41.0489 242.705 40.7196 242.632 40.3904C242.565 40.081 242.502 39.7701 242.449 39.4576C242.405 39.1939 242.365 38.9287 242.336 38.662C242.31 37.8712 242.178 37.0875 241.945 36.3314C241.726 35.8411 241.452 35.3773 241.129 34.949C240.99 34.7508 240.856 34.5527 240.733 34.3469C240.376 33.8121 240.21 33.1724 240.262 32.5315C240.277 32.4325 240.301 32.335 240.334 32.2404C240.346 32.2038 240.36 32.1673 240.375 32.1322C240.512 32.095 240.638 32.0248 240.742 31.9279C240.845 31.8309 240.924 31.7101 240.97 31.5758C241.023 31.2875 240.998 30.9904 240.899 30.7147C240.785 30.3294 240.629 29.9578 240.434 29.6066C240.306 29.3749 239.872 28.9572 239.869 28.692C239.863 28.1585 240.905 27.7287 241.327 27.5184C242.614 26.873 244.05 26.5816 245.487 26.6739C246.409 26.7364 247.408 27.0199 247.917 27.7927C248.374 28.4893 248.313 29.3916 248.507 30.201C248.528 30.3186 248.578 30.4292 248.652 30.5226C248.752 30.6132 248.877 30.6707 249.01 30.6872C249.236 30.7321 249.467 30.7414 249.695 30.7147H249.697C249.757 30.7099 249.817 30.7012 249.877 30.6887C250.232 30.623 250.569 30.4777 250.86 30.2635C251.049 30.2132 251.24 30.172 251.432 30.14C251.439 30.1392 251.447 30.1377 251.454 30.1354C252.217 32.5452 252.316 35.1288 252.941 37.5828C253.25 38.8037 253.693 40.0093 253.756 41.2653C253.76 41.3202 253.762 41.3765 253.763 41.4329C253.772 41.8369 253.74 42.2438 253.757 42.6462C253.763 42.8274 253.783 43.0079 253.818 43.1858C253.886 43.472 253.971 43.7539 254.072 44.0302L254.077 44.0439C254.106 44.1323 254.133 44.2223 254.156 44.3122C254.173 44.3777 254.188 44.4418 254.2 44.5073L254.202 44.5119C254.315 45.1854 254.331 45.8715 254.252 46.5498Z" fill="#FBBEBE"/>
<path d="M243.564 30.789C248.526 30.789 252.549 26.7628 252.549 21.7961C252.549 16.8295 248.526 12.8032 243.564 12.8032C238.601 12.8032 234.578 16.8295 234.578 21.7961C234.578 26.7628 238.601 30.789 243.564 30.789Z" fill="#FBBEBE"/>
<path d="M300.611 70.794C300.35 68.3405 299.479 65.9916 298.076 63.9624C298.309 65.3495 298.543 66.736 298.777 68.122C298.486 68.2063 298.177 68.2037 297.887 68.1146C297.598 68.0255 297.341 67.8538 297.147 67.6205C296.769 67.1477 296.48 66.6101 296.293 66.0338C295.272 63.4975 293.937 61.0995 292.32 58.8959C286.599 58.4188 280.945 56.0456 275.914 53.2792C270.883 50.5142 266.174 47.1991 261.209 44.3168C260.348 43.796 259.451 43.3376 258.525 42.945C256.972 42.3215 255.228 41.9984 253.755 41.2653C253.656 41.2165 253.558 41.1647 253.46 41.1113C253.127 40.9302 252.812 40.7185 252.519 40.4788C252.36 40.3499 252.21 40.2114 252.068 40.0642C251.333 39.2086 250.751 38.2332 250.346 37.1804C249.555 35.4306 249.273 33.3195 248.485 31.5697C248.847 31.2306 249.255 30.9429 249.695 30.7146H249.697C249.761 30.6811 249.825 30.6491 249.89 30.6186C250.202 30.4715 250.527 30.3526 250.86 30.2635C251.049 30.2132 251.24 30.172 251.431 30.14C251.439 30.1392 251.447 30.1377 251.454 30.1354C252.344 29.9903 253.256 30.0625 254.112 30.3458C255.364 30.7695 256.419 31.6154 257.471 32.4156C259.181 33.6211 260.821 34.9229 262.383 36.3146C263.251 37.1468 264.043 38.0613 264.977 38.8174C265.752 39.4166 266.57 39.9591 267.424 40.4407C272.476 43.4525 277.528 46.4639 282.58 49.4747C284.291 50.4944 286.002 51.5141 287.675 52.5933C290.215 54.2333 292.664 56.0105 295.111 57.7863C296.553 58.8319 297.995 59.878 299.436 60.9246C299.909 61.2265 300.325 61.6106 300.662 62.0587C300.961 62.5674 301.146 63.1346 301.206 63.7216C301.568 66.093 301.364 68.5165 300.611 70.794Z" fill="#FBBEBE"/>
<path d="M256.48 53.3128C255.874 56.0335 253.127 57.6782 251.69 60.0681C249.905 63.0343 250.633 66.4821 251.304 69.8795C250.079 70.9358 248.854 71.9921 247.629 73.0484C246.952 73.6291 246.276 74.2129 245.548 74.7266C244.487 75.4384 243.378 76.076 242.228 76.6349C241.144 77.1928 240.06 77.7511 238.975 78.31C237.967 78.8773 236.899 79.3302 235.791 79.6605C233.654 80.2092 231.385 79.8251 229.271 79.1895C229.022 79.124 228.782 79.0262 228.558 78.8983C228.426 78.8197 228.311 78.7155 228.22 78.592C228.012 78.218 227.936 77.7845 228.005 77.3619C228.22 73.8014 229.09 70.3155 229.956 66.8555C230.42 64.7798 231.042 62.7429 231.819 60.7632C232.581 59.0668 233.456 57.424 234.44 55.8461C235.525 53.8607 236.811 51.9919 238.278 50.2689C238.992 49.6058 239.592 48.8305 240.057 47.9735C240.597 46.7389 240.389 45.3229 240.498 43.9785C240.582 42.9684 240.85 41.9823 241.289 41.0688V41.0672C241.523 40.5752 241.806 40.1075 242.132 39.6711C242.28 40.0155 242.428 40.3595 242.576 40.703C242.673 40.9285 242.769 41.1536 242.865 41.3782C242.99 41.6678 243.114 41.9564 243.236 42.244C243.591 43.0701 243.946 43.8957 244.3 44.7208C244.682 45.7601 245.227 46.7319 245.914 47.6001C246.228 48.0446 246.652 48.4001 247.144 48.6317C247.636 48.8633 248.18 48.9631 248.723 48.9215C249.265 48.8799 249.787 48.6982 250.239 48.3942C250.69 48.0902 251.055 47.6743 251.297 47.187C251.809 46.2775 252.18 45.2953 252.397 44.2742C252.698 43.0309 252.739 41.739 252.519 40.4789C252.152 38.0524 251.121 35.574 250.371 33.3197C250.066 32.568 249.89 31.7704 249.849 30.9602C249.851 30.8691 249.86 30.7784 249.877 30.6889C249.881 30.666 249.886 30.6416 249.89 30.6187C250.202 30.4716 250.527 30.3528 250.86 30.2636C251.049 30.2133 251.24 30.1721 251.431 30.1401C252.091 33.7129 252.751 37.2857 253.413 40.8584C253.428 40.9423 253.445 41.0261 253.46 41.1115C253.554 41.6236 253.65 42.1357 253.757 42.6463C253.853 43.1097 253.957 43.5715 254.072 44.0303L254.077 44.0441C254.116 44.1995 254.158 44.3535 254.2 44.5074L254.202 44.512C254.319 44.9327 254.45 45.3503 254.598 45.7618C255.493 48.2417 257.054 50.7384 256.48 53.3128Z" fill="#00F0FF"/>
<path d="M292.946 91.5474C292.918 92.0715 293.019 92.5946 293.241 93.07C293.804 94.0987 295.153 94.3325 296.321 94.4287C303.141 94.9898 310.003 94.7805 316.777 93.8049C317.145 93.7797 317.501 93.669 317.818 93.4815C318.781 92.8057 318.188 91.1588 317.136 90.6315C316.085 90.1043 314.837 90.2313 313.683 90.003C312.536 89.7142 311.445 89.2404 310.451 88.6001C308.111 87.2546 305.805 85.8518 303.533 84.3917C302.18 83.5223 300.584 82.5946 299.061 83.11C294.935 84.507 292.919 87.0927 292.946 91.5474Z" fill="#244C4F"/>
<path d="M242.667 40.1995V40.2011C242.656 40.2651 242.646 40.3276 242.632 40.3901C242.615 40.4937 242.595 40.5989 242.576 40.7025C242.387 41.6704 242.155 42.6337 241.889 43.5909C241.158 46.2354 240.179 48.8373 239.207 51.401C236.6 58.2752 233.992 65.15 231.383 72.0252C230.726 73.7567 230.069 75.4897 229.321 77.1862C229.072 77.7517 228.814 78.3217 228.558 78.8979C227.642 80.9602 226.761 83.0895 226.469 85.2844C226.196 86.7289 226.165 88.2087 226.376 89.6635C226.668 91.1023 227.541 92.5076 228.907 93.0396C229.574 93.3002 230.529 93.6493 230.346 94.3428C230.247 94.7239 229.815 94.9098 229.426 94.9738C228.914 95.0556 228.389 95.0235 227.89 94.8796C227.391 94.7358 226.93 94.4839 226.539 94.1416C225.809 93.4938 225.249 92.4863 224.279 92.3781C223.607 92.305 222.989 92.7073 222.374 92.9893C219.864 94.137 216.94 93.3338 214.304 92.5183C214.511 91.4499 215.583 90.7457 216.647 90.5323C217.712 90.3174 218.813 90.4698 219.899 90.4408C220.247 90.4594 220.592 90.3705 220.887 90.1863C221.152 89.9428 221.338 89.6252 221.42 89.2748C222.12 87.2005 222.64 85.07 222.975 82.9066C223.326 80.6462 223.472 78.3507 223.971 76.1177C224.36 74.3755 224.96 72.6883 225.474 70.9781C226.47 67.4569 227.287 63.8877 227.923 60.2842C228.245 58.787 228.475 57.2717 228.613 55.7466C228.7 54.4815 228.659 53.2103 228.781 51.9497C228.985 50.3098 229.327 48.6899 229.803 47.1073C230.269 45.3803 230.734 43.6544 231.199 41.9295C231.889 39.3764 232.629 36.7243 234.378 34.7398C234.985 34.0411 235.729 33.4747 236.564 33.0757C237.399 32.6766 238.307 32.4534 239.231 32.4199C239.578 32.4195 239.924 32.4568 240.262 32.5312C240.319 32.5449 240.375 32.5586 240.431 32.5739C240.8 32.6704 241.154 32.8171 241.484 33.0098C242.023 32.6668 242.297 32.7873 242.655 33.3162C242.969 33.8759 243.117 34.5135 243.081 35.1544C243.111 36.8457 242.973 38.5358 242.667 40.1995Z" fill="#FBBEBE"/>
<path d="M243.26 42.2208L243.237 42.2437L243.113 42.3672L241.889 43.5911L241.289 41.0685L239.231 32.4201C239.578 32.4197 239.924 32.457 240.262 32.5314C240.277 32.4323 240.301 32.3348 240.334 32.2402L240.431 32.574L241.129 34.9488L242.449 39.4574L242.667 40.1997V40.2012L243.26 42.2208Z" fill="#00F0FF"/>
<path d="M251.029 14.6303C251.028 15.4311 250.87 16.2239 250.562 16.9633C250.255 17.7027 249.805 18.3742 249.238 18.9395C249.033 19.1452 248.813 19.3357 248.58 19.5093C247.529 20.3022 246.249 20.7314 244.933 20.732H237.626C236.012 20.7295 234.464 20.0858 233.324 18.9424C232.183 17.7989 231.542 16.2492 231.542 14.6333C231.542 13.0175 232.183 11.4677 233.324 10.3242C234.464 9.1808 236.012 8.53716 237.626 8.53467H244.933C246.547 8.53887 248.095 9.18226 249.237 10.3243C250.379 11.4664 251.023 13.0144 251.029 14.6303Z" fill="#1D868C"/>
<path d="M257.879 15.0899C261.328 15.0899 264.124 12.292 264.124 8.84061C264.124 5.38922 261.328 2.59131 257.879 2.59131C254.431 2.59131 251.635 5.38922 251.635 8.84061C251.635 12.292 254.431 15.0899 257.879 15.0899Z" fill="#1D868C"/>
<path opacity="0.1" d="M257.727 2.59131C257.651 2.59131 257.575 2.59435 257.499 2.59709C259.114 2.65586 260.644 3.33939 261.766 4.50385C262.888 5.66831 263.515 7.22293 263.515 8.84061C263.515 10.4583 262.888 12.0129 261.766 13.1774C260.644 14.3418 259.114 15.0254 257.499 15.0841C257.575 15.0869 257.651 15.0899 257.727 15.0899C259.383 15.0899 260.972 14.4315 262.143 13.2595C263.314 12.0876 263.971 10.498 263.971 8.84061C263.971 7.18319 263.314 5.59366 262.143 4.42169C260.972 3.24972 259.383 2.59131 257.727 2.59131Z" fill="black"/>
<path opacity="0.1" d="M228.03 2.59131C228.106 2.59131 228.182 2.59435 228.258 2.59709C226.643 2.65586 225.114 3.33939 223.992 4.50385C222.87 5.66831 222.243 7.22293 222.243 8.84061C222.243 10.4583 222.87 12.0129 223.992 13.1774C225.114 14.3418 226.643 15.0254 228.258 15.0841C228.182 15.0869 228.106 15.0899 228.03 15.0899C226.375 15.0884 224.788 14.4294 223.618 13.2576C222.448 12.0858 221.791 10.4971 221.791 8.84061C221.791 7.18415 222.448 5.59544 223.618 4.42363C224.788 3.25182 226.375 2.59277 228.03 2.59131Z" fill="black"/>
<path opacity="0.1" d="M248.58 19.5093C247.529 20.3022 246.249 20.7314 244.933 20.732H237.626C236.31 20.7314 235.03 20.3022 233.979 19.5093H248.58Z" fill="black"/>
<path d="M295.762 64.7909C295.762 64.7909 297.336 69.3305 298.777 68.1218L297.629 62.188L295.762 64.7909Z" fill="#FBBEBE"/>
<path d="M487.317 203.229C488.783 203.762 490.353 203.948 491.903 203.77C493.453 203.593 494.94 203.058 496.248 202.207C497.556 201.356 498.649 200.212 499.44 198.867C500.231 197.521 500.699 196.01 500.807 194.452C500.915 192.895 500.66 191.333 500.063 189.891C499.465 188.449 498.541 187.165 497.363 186.142C496.185 185.118 494.785 184.382 493.275 183.992C491.764 183.602 490.184 183.568 488.658 183.894L488.91 189.083L486.457 184.636C484.05 185.768 482.19 187.81 481.286 190.314C480.966 191.191 480.77 192.11 480.707 193.041C480.552 195.228 481.114 197.405 482.306 199.243C483.499 201.082 485.258 202.481 487.317 203.229Z" fill="#57B894"/>
<path d="M499.454 263.412C498.588 258.999 502.34 255.087 506.046 252.544C509.753 250.001 514.083 247.502 515.348 243.187C517.165 236.985 511.752 231.305 507.538 226.406C504.412 222.771 501.728 218.778 499.541 214.511C498.664 212.8 497.859 211.011 497.628 209.102C497.296 206.353 498.178 203.617 499.067 200.995C502.029 192.259 505.196 183.596 508.567 175.007" stroke="#244C4F" stroke-miterlimit="10"/>
<path d="M487.731 201.893C489.198 202.426 490.768 202.612 492.317 202.434C493.867 202.257 495.355 201.722 496.663 200.871C497.971 200.02 499.064 198.876 499.855 197.531C500.646 196.185 501.114 194.674 501.222 193.116C501.33 191.559 501.075 189.997 500.477 188.555C499.88 187.113 498.955 185.829 497.778 184.806C496.6 183.782 495.2 183.046 493.69 182.656C492.179 182.266 490.599 182.232 489.073 182.558L489.325 187.747L486.872 183.3C484.465 184.432 482.605 186.474 481.701 188.978C481.38 189.855 481.185 190.774 481.122 191.705C480.967 193.892 481.528 196.069 482.721 197.907C483.914 199.746 485.673 201.145 487.731 201.893V201.893Z" stroke="#244C4F" stroke-miterlimit="10"/>
<path d="M498.223 173.215C498.798 171.626 499.764 170.207 501.031 169.09C502.298 167.973 503.826 167.193 505.473 166.822L506.303 171.755L507.84 166.574C509.975 166.605 512.045 167.315 513.75 168.601C515.456 169.887 516.709 171.682 517.329 173.726C517.949 175.771 517.903 177.961 517.199 179.978C516.495 181.995 515.168 183.736 513.411 184.95C511.653 186.164 509.556 186.787 507.421 186.73C505.287 186.672 503.226 185.938 501.536 184.632C499.846 183.326 498.614 181.516 498.019 179.464C497.423 177.412 497.495 175.223 498.223 173.215H498.223Z" fill="#57B894"/>
<path d="M498.776 171.433C499.352 169.844 500.317 168.426 501.584 167.309C502.851 166.192 504.379 165.412 506.026 165.04L506.856 169.973L508.393 164.792C510.528 164.824 512.598 165.534 514.303 166.82C516.009 168.105 517.262 169.9 517.882 171.945C518.502 173.99 518.457 176.179 517.752 178.197C517.048 180.214 515.721 181.955 513.964 183.169C512.206 184.382 510.109 185.006 507.974 184.948C505.84 184.891 503.779 184.157 502.089 182.851C500.399 181.545 499.167 179.735 498.572 177.683C497.976 175.631 498.048 173.442 498.776 171.433H498.776Z" stroke="#244C4F" stroke-miterlimit="10"/>
<path d="M505.77 226.506C508.095 227.35 510.649 227.309 512.946 226.389C515.242 225.47 517.12 223.737 518.222 221.52C519.324 219.304 519.572 216.759 518.92 214.371C518.267 211.984 516.76 209.92 514.685 208.573L513.503 212.554L512.665 207.563C512.657 207.559 512.649 207.556 512.64 207.553C511.396 207.101 510.076 206.898 508.754 206.957C507.432 207.015 506.134 207.334 504.935 207.895C503.737 208.455 502.66 209.247 501.767 210.224C500.874 211.201 500.182 212.345 499.731 213.59C499.279 214.835 499.078 216.157 499.137 217.48C499.196 218.803 499.515 220.101 500.076 221.3C500.637 222.5 501.429 223.577 502.406 224.47C503.383 225.364 504.526 226.055 505.77 226.506H505.77Z" fill="#57B894"/>
<path d="M506.249 224.702C508.574 225.546 511.129 225.505 513.425 224.585C515.722 223.665 517.6 221.932 518.701 219.716C519.803 217.5 520.051 214.955 519.399 212.567C518.747 210.179 517.239 208.115 515.164 206.768L513.982 210.75L513.145 205.759C513.136 205.755 513.128 205.751 513.119 205.749C511.875 205.297 510.555 205.094 509.233 205.152C507.911 205.211 506.613 205.53 505.415 206.09C504.216 206.651 503.139 207.443 502.246 208.42C501.353 209.397 500.661 210.541 500.21 211.786C499.759 213.031 499.557 214.352 499.616 215.675C499.675 216.998 499.995 218.297 500.556 219.496C501.116 220.696 501.908 221.773 502.885 222.666C503.862 223.559 505.005 224.251 506.249 224.702H506.249Z" stroke="#244C4F" stroke-miterlimit="10"/>
<path d="M495.283 243.248C495.683 245.525 496.853 247.595 498.597 249.111C500.34 250.627 502.552 251.497 504.86 251.575C507.169 251.653 509.434 250.934 511.275 249.538C513.117 248.143 514.423 246.157 514.975 243.912C515.527 241.667 515.291 239.301 514.307 237.21C513.322 235.119 511.649 233.43 509.568 232.427C507.487 231.423 505.125 231.167 502.878 231.7C500.63 232.233 498.634 233.523 497.224 235.354L501.712 242.115L495.58 238.526C495.105 240.054 495.003 241.673 495.283 243.248Z" fill="#57B894"/>
<path d="M495.698 241.912C496.098 244.189 497.268 246.259 499.011 247.775C500.755 249.291 502.967 250.161 505.275 250.239C507.584 250.317 509.848 249.598 511.69 248.203C513.532 246.807 514.838 244.821 515.39 242.576C515.942 240.332 515.706 237.965 514.721 235.874C513.737 233.783 512.064 232.094 509.983 231.091C507.902 230.087 505.54 229.831 503.293 230.364C501.045 230.897 499.049 232.187 497.639 234.018L502.127 240.779L495.995 237.19C495.52 238.718 495.418 240.337 495.698 241.912V241.912Z" stroke="#244C4F" stroke-miterlimit="10"/>
<path d="M4.35954 227.787C5.32283 228.138 6.3543 228.26 7.37264 228.143C8.39098 228.027 9.36835 227.675 10.2277 227.116C11.0871 226.557 11.805 225.806 12.3248 224.921C12.8446 224.037 13.1521 223.044 13.2231 222.021C13.2941 220.998 13.1267 219.972 12.7339 219.024C12.3412 218.077 11.734 217.233 10.96 216.561C10.1861 215.888 9.26667 215.405 8.2742 215.149C7.28173 214.892 6.24334 214.87 5.2409 215.084L5.40655 218.493L3.79491 215.572C2.21318 216.315 0.991227 217.657 0.39758 219.302C0.186751 219.879 0.0585824 220.482 0.0168983 221.094C-0.0848292 222.531 0.284076 223.961 1.06771 225.169C1.85134 226.377 3.00699 227.296 4.35954 227.787Z" fill="#57B894"/>
<path d="M12.3339 267.329C11.765 264.43 14.2302 261.859 16.6652 260.188C19.1003 258.518 21.9455 256.876 22.7763 254.041C23.9704 249.966 20.4136 246.234 17.6453 243.016C15.5915 240.627 13.8277 238.004 12.3909 235.2C11.7663 234.099 11.3408 232.896 11.1341 231.646C10.9159 229.84 11.4957 228.043 12.0798 226.32C14.0258 220.58 16.1064 214.889 18.3215 209.245" stroke="#244C4F" stroke-miterlimit="10"/>
<path d="M4.63222 226.909C5.59551 227.26 6.62698 227.382 7.64531 227.265C8.66365 227.149 9.64102 226.797 10.5004 226.238C11.3598 225.679 12.0777 224.928 12.5975 224.043C13.1173 223.159 13.4248 222.166 13.4958 221.143C13.5668 220.12 13.3993 219.094 13.0066 218.146C12.6139 217.199 12.0066 216.356 11.2327 215.683C10.4588 215.01 9.53934 214.527 8.54687 214.271C7.5544 214.014 6.51602 213.992 5.51358 214.206L5.67923 217.615L4.06759 214.694C2.48586 215.437 1.2639 216.779 0.670255 218.424C0.459428 219.001 0.331261 219.604 0.289575 220.216C0.187841 221.653 0.556743 223.083 1.34038 224.291C2.12401 225.499 3.27967 226.418 4.63222 226.909V226.909Z" stroke="#244C4F" stroke-miterlimit="10"/>
<path d="M11.5251 208.068C11.9031 207.024 12.5376 206.092 13.3701 205.358C14.2026 204.624 15.2062 204.111 16.2886 203.867L16.8335 207.109L17.8438 203.705C19.2465 203.725 20.6063 204.192 21.7269 205.037C22.8475 205.881 23.6708 207.06 24.0781 208.404C24.4854 209.748 24.4555 211.186 23.9927 212.511C23.53 213.837 22.6584 214.981 21.5037 215.778C20.349 216.575 18.971 216.985 17.5686 216.947C16.1662 216.91 14.8121 216.427 13.7017 215.569C12.5913 214.711 11.782 213.522 11.3908 212.174C10.9996 210.825 11.0466 209.388 11.5251 208.068Z" fill="#57B894"/>
<path d="M11.8886 206.897C12.2666 205.853 12.9011 204.921 13.7336 204.187C14.566 203.453 15.5697 202.941 16.6521 202.697L17.197 205.938L18.2073 202.534C19.61 202.555 20.9698 203.021 22.0904 203.866C23.2109 204.711 24.0343 205.89 24.4416 207.234C24.8488 208.577 24.819 210.016 24.3562 211.341C23.8935 212.666 23.0218 213.81 21.8671 214.608C20.7124 215.405 19.3344 215.814 17.9321 215.777C16.5297 215.739 15.1756 215.257 14.0652 214.399C12.9547 213.541 12.1455 212.352 11.7543 211.003C11.363 209.655 11.4101 208.217 11.8886 206.897V206.897Z" stroke="#244C4F" stroke-miterlimit="10"/>
<path d="M16.4837 243.081C18.0114 243.635 19.6896 243.608 21.1984 243.004C22.7072 242.4 23.9412 241.261 24.665 239.805C25.3889 238.349 25.552 236.677 25.1234 235.108C24.6948 233.539 23.7044 232.183 22.3409 231.298L21.5646 233.914L21.0141 230.635C21.0087 230.632 21.0031 230.63 20.9973 230.628C20.1801 230.331 19.3124 230.198 18.4438 230.236C17.5752 230.274 16.7226 230.484 15.9348 230.852C15.147 231.22 14.4395 231.74 13.8526 232.382C13.2658 233.025 12.8111 233.776 12.5146 234.594C12.2181 235.412 12.0855 236.281 12.1246 237.15C12.1636 238.019 12.3734 238.873 12.742 239.661C13.1106 240.449 13.6308 241.157 14.2728 241.743C14.9149 242.33 15.6661 242.785 16.4837 243.081Z" fill="#57B894"/>
<path d="M16.7986 241.895C18.3263 242.45 20.0045 242.423 21.5133 241.819C23.0221 241.214 24.256 240.076 24.9799 238.62C25.7037 237.163 25.8669 235.492 25.4383 233.923C25.0097 232.354 24.0192 230.998 22.6558 230.113L21.8795 232.729L21.329 229.449C21.3236 229.447 21.3179 229.445 21.3122 229.443C20.4952 229.146 19.6279 229.014 18.7597 229.053C17.8915 229.091 17.0394 229.301 16.2522 229.669C14.6623 230.414 13.4328 231.759 12.8343 233.411C12.2357 235.062 12.3172 236.884 13.0606 238.475C13.8041 240.066 15.1487 241.296 16.7986 241.895V241.895Z" stroke="#244C4F" stroke-miterlimit="10"/>
<path d="M9.59367 254.081C9.85634 255.577 10.6249 256.937 11.7706 257.933C12.9162 258.929 14.3692 259.5 15.8859 259.551C17.4026 259.603 18.8907 259.13 20.1007 258.214C21.3107 257.297 22.1689 255.992 22.5316 254.517C22.8942 253.042 22.7391 251.488 22.0923 250.114C21.4455 248.74 20.3464 247.63 18.9792 246.971C17.6121 246.312 16.06 246.143 14.5834 246.493C13.1067 246.844 11.7953 247.691 10.869 248.894L13.8176 253.336L9.78869 250.978C9.4763 251.982 9.40942 253.046 9.59367 254.081Z" fill="#57B894"/>
<path d="M9.86632 253.203C10.129 254.699 10.8976 256.059 12.0432 257.055C13.1889 258.051 14.6419 258.623 16.1585 258.674C17.6752 258.725 19.1633 258.252 20.3733 257.336C21.5833 256.419 22.4416 255.114 22.8042 253.639C23.1668 252.164 23.0117 250.61 22.365 249.236C21.7182 247.862 20.619 246.752 19.2519 246.093C17.8847 245.434 16.3326 245.265 14.856 245.615C13.3794 245.966 12.0679 246.813 11.1416 248.016L14.0903 252.458L10.0613 250.101C9.74894 251.104 9.68206 252.168 9.86632 253.203V253.203Z" stroke="#244C4F" stroke-miterlimit="10"/>
<path d="M232.775 165.235C237.319 165.235 241.003 160.464 241.003 154.579C241.003 148.693 237.319 143.922 232.775 143.922C228.231 143.922 224.547 148.693 224.547 154.579C224.547 160.464 228.231 165.235 232.775 165.235Z" fill="#1D868C"/>
<path d="M277.545 165.478C282.089 165.478 285.773 160.706 285.773 154.821C285.773 148.935 282.089 144.164 277.545 144.164C273.001 144.164 269.317 148.935 269.317 154.821C269.317 160.706 273.001 165.478 277.545 165.478Z" fill="#1D868C"/>
<path d="M271.253 186.307C271.253 191.122 264.535 195.026 256.249 195.026C247.963 195.026 241.245 191.122 241.245 186.307C241.245 182.136 246.284 178.648 253.016 177.796C254.088 177.654 255.168 177.585 256.249 177.588C258.061 177.582 259.867 177.777 261.636 178.169C267.26 179.423 271.253 182.596 271.253 186.307Z" fill="#1D868C"/>
<path d="M234.711 162.813C239.255 162.813 242.939 158.042 242.939 152.157C242.939 146.271 239.255 141.5 234.711 141.5C230.167 141.5 226.483 146.271 226.483 152.157C226.483 158.042 230.167 162.813 234.711 162.813Z" stroke="#244C4F" stroke-miterlimit="10"/>
<path d="M279.481 163.056C284.025 163.056 287.709 158.284 287.709 152.399C287.709 146.513 284.025 141.742 279.481 141.742C274.936 141.742 271.253 146.513 271.253 152.399C271.253 158.284 274.936 163.056 279.481 163.056Z" stroke="#244C4F" stroke-miterlimit="10"/>
<path d="M258.185 192.604C266.471 192.604 273.189 188.7 273.189 183.885C273.189 179.069 266.471 175.166 258.185 175.166C249.899 175.166 243.181 179.069 243.181 183.885C243.181 188.7 249.899 192.604 258.185 192.604Z" stroke="#244C4F" stroke-miterlimit="10"/>
<path d="M261.815 178.895C261.819 179.505 261.59 180.092 261.176 180.538C260.98 180.752 260.742 180.923 260.478 181.041C260.213 181.158 259.926 181.219 259.637 181.221H254.797C254.2 181.2 253.637 180.943 253.228 180.508C252.82 180.072 252.601 179.492 252.619 178.895C252.616 178.423 252.754 177.961 253.016 177.568C254.087 177.417 255.167 177.342 256.249 177.345C258.063 177.339 259.871 177.547 261.636 177.965C261.755 178.261 261.816 178.577 261.815 178.895Z" fill="white"/>
<path d="M234.711 151.673C236.048 151.673 237.131 150.588 237.131 149.251C237.131 147.913 236.048 146.829 234.711 146.829C233.375 146.829 232.291 147.913 232.291 149.251C232.291 150.588 233.375 151.673 234.711 151.673Z" fill="white"/>
<path d="M279.723 151.673C281.059 151.673 282.143 150.588 282.143 149.251C282.143 147.913 281.059 146.829 279.723 146.829C278.386 146.829 277.303 147.913 277.303 149.251C277.303 150.588 278.386 151.673 279.723 151.673Z" fill="white"/>
<path opacity="0.3" d="M282.143 174.439C283.479 174.439 284.563 173.355 284.563 172.017C284.563 170.68 283.479 169.595 282.143 169.595C280.806 169.595 279.723 170.68 279.723 172.017C279.723 173.355 280.806 174.439 282.143 174.439Z" fill="#00F0FF"/>
<path opacity="0.3" d="M223.095 174.439C224.432 174.439 225.515 173.355 225.515 172.017C225.515 170.68 224.432 169.595 223.095 169.595C221.759 169.595 220.675 170.68 220.675 172.017C220.675 173.355 221.759 174.439 223.095 174.439Z" fill="#00F0FF"/>
</g>
<defs>
<clipPath id="clip0">
<rect width="520" height="283" fill="white"/>
</clipPath>
</defs>
</svg>
